<?xml version="1.0" encoding="UTF-8"?>
<svg version="1.1" xmlns="http://www.w3.org/2000/svg" width="500" height="500">
<path d="M0 0 C1.216875 0.28875 2.43375 0.5775 3.6875 0.875 C25.96554352 6.22863837 50.70768774 19.70768774 67 36 C67 36.99 67 37.98 67 39 C66.34 39 65.68 39 65 39 C65 39.66 65 40.32 65 41 C63.63700524 41.95409633 62.26500527 42.89736011 60.85546875 43.78125 C58.04911233 45.62458306 55.45658287 47.73676632 52.83203125 49.828125 C51 51 51 51 48 51 C47.34 52.32 46.68 53.64 46 55 C45.01 55 44.02 55 43 55 C43 55.66 43 56.32 43 57 C40 59 40 59 37.6875 58.875 C34.30848857 57.77485674 31.81116623 56.15740664 29 54 C29 53.34 29 52.68 29 52 C28.154375 51.7525 27.30875 51.505 26.4375 51.25 C23.37446676 50.13616973 20.75983828 48.78281951 17.9609375 47.1328125 C6.36802382 40.43571097 -5.94472836 35.85988005 -19 33 C-20.0621875 32.72027344 -21.124375 32.44054687 -22.21875 32.15234375 C-56.30040453 24.18760927 -94.18777164 31.65837686 -123.80078125 49.70703125 C-125.89810248 51.09937055 -127.95264138 52.53569351 -130 54 C-131.423125 54.8971875 -131.423125 54.8971875 -132.875 55.8125 C-163.11008262 76.97705783 -183.16519223 109.1671767 -190.61035156 145.13623047 C-197.19593778 182.59101047 -189.44936883 221.46114383 -167.73779297 252.82324219 C-163.53403364 258.60557531 -159.08904226 263.969261 -154 269 C-152.98931799 270.22039853 -151.98855984 271.4491139 -151 272.6875 C-146.08165201 278.35266873 -140.05411561 282.6400402 -134 287 C-133.02804688 287.70382812 -132.05609375 288.40765625 -131.0546875 289.1328125 C-100.26389073 310.52696284 -63.49256796 317.65118497 -26.625 312.1875 C-5.31693616 308.04678405 15.59827525 300.17030232 33 287 C34.08554362 286.20519094 35.17150625 285.41095393 36.2578125 284.6171875 C41.91977781 280.42828666 47.12534956 276.22444735 51.59375 270.7265625 C53 269 53 269 55.5 266.5625 C82.60994319 238.77480823 91.49048543 201.83007304 91.1484375 164.29296875 C90.85183898 145.0845679 86.23282372 126.50127094 77.125 109.5 C75.81069571 106.5793238 75.91135848 105.92674982 77 103 C78.48828125 101.03515625 78.48828125 101.03515625 80.3125 99.0625 C82.30860713 96.87204572 84.20210638 94.73473538 86 92.375 C88.20338696 89.75847798 90.62524121 87.73646473 93.25 85.55859375 C95.82411866 83.26601931 97.87280142 80.70734365 100 78 C104.38954711 79.46967098 105.83677802 82.66266998 107.8125 86.5625 C108.15579346 87.22652832 108.49908691 87.89055664 108.8527832 88.57470703 C115.41948657 101.52683832 120.45382249 114.92515433 124 129 C124.19754883 129.73025391 124.39509766 130.46050781 124.59863281 131.21289062 C131.80598373 158.65036727 130.60258181 191.80730089 123 219 C122.76474609 219.84868652 122.52949219 220.69737305 122.28710938 221.57177734 C118.08782738 236.20853092 111.56102159 249.81357835 104 263 C103.50628906 263.86367188 103.01257813 264.72734375 102.50390625 265.6171875 C99.33263225 271.03718306 95.89877899 276.08097978 92 281 C91.36578125 281.81984375 90.7315625 282.6396875 90.078125 283.484375 C82.42405685 293.14973113 73.81512994 302.83853537 63.5859375 309.8515625 C61.9676518 310.95806858 61.9676518 310.95806858 60.6328125 312.37890625 C53.5778412 319.38324378 44.81483469 324.56436615 36 329 C34.70162786 329.66758952 33.40346423 330.33558468 32.10546875 331.00390625 C6.22005726 344.24163292 -20.58138669 350.84021181 -49.6875 350.5625 C-50.64090271 350.55857239 -51.59430542 350.55464478 -52.57659912 350.55059814 C-68.18062581 350.46034119 -82.91119708 349.26643084 -98 345 C-98.82983398 344.77006348 -99.65966797 344.54012695 -100.51464844 344.30322266 C-113.72152145 340.53021183 -127.33875707 335.31843522 -139 328 C-139.72058594 327.58621094 -140.44117188 327.17242187 -141.18359375 326.74609375 C-146.50624475 323.65581977 -151.59543571 320.29116527 -156.625 316.75 C-157.2533374 316.31357178 -157.8816748 315.87714355 -158.52905273 315.42749023 C-160.05775648 314.3368919 -161.53446595 313.17411661 -163 312 C-163 311.34 -163 310.68 -163 310 C-163.556875 309.7525 -164.11375 309.505 -164.6875 309.25 C-167.42410913 307.77075182 -169.67650869 306.06532561 -172 304 C-172 303.34 -172 302.68 -172 302 C-172.59941406 301.73832031 -173.19882813 301.47664063 -173.81640625 301.20703125 C-176.13061764 299.92779812 -177.29659445 298.73749558 -178.9375 296.6875 C-180.6803546 294.52713705 -182.44194844 292.56019694 -184.4140625 290.59765625 C-194.00965027 280.95858394 -201.14485272 269.65180841 -208 258 C-208.38285156 257.3709375 -208.76570313 256.741875 -209.16015625 256.09375 C-211.24997998 252.59746695 -212.8141425 249.08538235 -214.1640625 245.24609375 C-214.74889214 243.67470571 -215.3953021 242.12550075 -216.0859375 240.59765625 C-223.42729585 224.30171112 -226.9153437 206.66144072 -229 189 C-229.13148438 187.92105469 -229.26296875 186.84210938 -229.3984375 185.73046875 C-232.08363312 160.36625602 -227.79473162 133.79460066 -219 110 C-218.67128906 109.07960938 -218.34257812 108.15921875 -218.00390625 107.2109375 C-210.97498489 88.52962651 -200.14436982 70.03422557 -187 55 C-186.34 55 -185.68 55 -185 55 C-184.7525 54.443125 -184.505 53.88625 -184.25 53.3125 C-180.94280483 47.19418894 -175.19515816 40.95524335 -168.8125 37.98046875 C-166.64504136 37.07505918 -166.64504136 37.07505918 -166 34 C-158.94749153 27.91455791 -150.95745179 22.80449919 -143 18 C-141.37964844 17.01 -141.37964844 17.01 -139.7265625 16 C-132.54209373 11.69889939 -125.29992846 8.29670841 -117.47265625 5.32421875 C-115.15749166 4.44138321 -112.86546295 3.49532662 -110.6015625 2.48828125 C-78.6185508 -10.72812597 -32.28133115 -12.87705847 0 0 Z " fill="#03A3FC" transform="translate(301,79)"/>
<path d="M0 0 C3.3831938 2.67094247 4.72727511 4.84157733 5.2734375 9.1640625 C5.67302803 18.8464484 1.35714274 24.83195407 -4.86328125 31.8828125 C-6.7210914 33.72364084 -8.62036374 35.41683943 -10.6015625 37.12109375 C-15.65067661 41.498972 -20.34960794 46.20329871 -25.0625 50.9375 C-25.92166016 51.79279297 -26.78082031 52.64808594 -27.66601562 53.52929688 C-32.1636599 58.03381303 -36.4859812 62.58339019 -40.52514648 67.50610352 C-42 69 -42 69 -45 70 C-45.69642782 71.31803282 -46.35817027 72.65453472 -47 74 C-48.24880237 75.49520284 -49.54698161 76.94969089 -50.875 78.375 C-54.7148779 82.56846924 -58.48155576 86.81254466 -62.1875 91.125 C-62.70151367 91.72248047 -63.21552734 92.31996094 -63.74511719 92.93554688 C-66.50157182 96.16479146 -69.13082935 99.43560575 -71.625 102.875 C-72.40875 103.90625 -73.1925 104.9375 -74 106 C-74.66 106 -75.32 106 -76 106 C-76.1546875 106.9590625 -76.1546875 106.9590625 -76.3125 107.9375 C-76.6528125 108.9584375 -76.6528125 108.9584375 -77 110 C-77.99 110.33 -78.98 110.66 -80 111 C-80.70638468 112.31272347 -81.36361201 113.65195232 -82 115 C-83.45016582 117.00051339 -84.93255718 118.97786181 -86.4375 120.9375 C-88.68433646 123.86542032 -90.81592176 126.68078667 -92.66015625 129.87890625 C-93.10230469 130.57886719 -93.54445313 131.27882812 -94 132 C-94.66 132 -95.32 132 -96 132 C-96.268125 132.7425 -96.53625 133.485 -96.8125 134.25 C-97.95276751 136.89061949 -99.09380306 138.85552844 -101 141 C-101.66 141 -102.32 141 -103 141 C-103.10183594 141.5671875 -103.20367187 142.134375 -103.30859375 142.71875 C-104.13349644 145.44046282 -105.38357281 147.2053387 -107.0625 149.5 C-116.48419759 162.64833255 -125.07744921 176.32209313 -133.078125 190.37890625 C-133.57787842 191.25538818 -134.07763184 192.13187012 -134.5925293 193.03491211 C-135.55949666 194.73870828 -136.51950795 196.44647435 -137.47192383 198.15844727 C-137.90529053 198.92342529 -138.33865723 199.68840332 -138.78515625 200.4765625 C-139.16551025 201.15799316 -139.54586426 201.83942383 -139.93774414 202.54150391 C-140.28828857 203.02280762 -140.63883301 203.50411133 -141 204 C-141.66 204 -142.32 204 -143 204 C-143.11085938 204.71285156 -143.22171875 205.42570313 -143.3359375 206.16015625 C-144.05654592 209.24181697 -145.16876099 211.63015153 -146.625 214.4375 C-148.36295214 217.79754081 -150.07029918 221.15045338 -151.671875 224.578125 C-155.5634377 232.82538173 -159.6207309 241.25547495 -168.0625 245.5625 C-175.31928171 246.64329728 -180.79684143 246.02978914 -187 242 C-192.356846 236.643154 -195.43558426 229.68177153 -198.359375 222.80078125 C-204.46874606 208.50003228 -211.60495334 194.66980102 -219 181 C-219.44585449 180.17419434 -219.89170898 179.34838867 -220.35107422 178.49755859 C-221.68484694 176.03583343 -223.02770679 173.579348 -224.375 171.125 C-224.98202759 170.01016235 -224.98202759 170.01016235 -225.60131836 168.87280273 C-227.78724054 164.92849033 -230.15091694 161.51016394 -233 158 C-234.59666449 155.21266884 -236.0613634 152.37720085 -237.53515625 149.5234375 C-238.87352558 147.21787326 -240.12556934 145.8403501 -242 144 C-243.02230057 142.34691823 -244.02065076 140.67888441 -245 139 C-249.63728744 132.17531282 -254.70520245 125.79857745 -260.23046875 119.6796875 C-264.29372621 115.05274115 -266.65374543 110.72057166 -267.4375 104.5625 C-266.76605811 99.09504458 -264.91426593 94.85625787 -260.9375 91 C-255.39293909 89.1124899 -249.82707696 88.92907535 -244.30859375 91.01953125 C-241.82540517 92.27439449 -239.41776935 93.62437261 -237 95 C-235.845 95.474375 -234.69 95.94875 -233.5 96.4375 C-228.74631795 98.55967949 -224.42349395 101.26909698 -220 104 C-219.18402344 104.48082031 -218.36804688 104.96164063 -217.52734375 105.45703125 C-210.2757466 109.88420416 -203.76400873 114.92551229 -197.8984375 121.06640625 C-195.99636098 123.00370641 -194.01068302 124.74851779 -191.9375 126.5 C-188.51116457 129.4435641 -185.59353533 132.63204548 -182.66796875 136.06640625 C-180.24163867 138.87913081 -177.72082319 141.46900168 -175 144 C-174.34 144 -173.68 144 -173 144 C-171.49041392 142.12317409 -171.49041392 142.12317409 -169.9375 139.6875 C-163.03141146 129.56235171 -154.85075676 120.42555735 -146.8203125 111.1875 C-146.11285889 110.37345703 -146.11285889 110.37345703 -145.39111328 109.54296875 C-142.54996405 106.39167652 -142.54996405 106.39167652 -141 105 C-140.34 105 -139.68 105 -139 105 C-138.7525 104.443125 -138.505 103.88625 -138.25 103.3125 C-135.69192231 98.58005628 -132.37456435 95.10824309 -128 92 C-127.34 92 -126.68 92 -126 92 C-125.731875 91.360625 -125.46375 90.72125 -125.1875 90.0625 C-124 88 -124 88 -121 87 C-119.79117904 84.99983534 -119.79117904 84.99983534 -119 83 C-118.34 83 -117.68 83 -117 83 C-116.78214844 82.43410156 -116.56429687 81.86820312 -116.33984375 81.28515625 C-114.56480569 78.25775898 -112.31678996 76.59923355 -109.5625 74.4375 C-105.77682541 71.48915356 -105.77682541 71.48915356 -102.27734375 68.22265625 C-101 67 -101 67 -99 67 C-99 66.34 -99 65.68 -99 65 C-96.525 64.01 -96.525 64.01 -94 63 C-94 62.34 -94 61.68 -94 61 C-91.97418794 59.2505731 -89.9406455 57.61701279 -87.8125 56 C-86.86443481 55.26849731 -86.86443481 55.26849731 -85.8972168 54.5222168 C-84.58065067 53.50744234 -83.26201096 52.49535298 -81.94140625 51.48583984 C-80.1423144 50.1089192 -78.35088051 48.72282017 -76.5625 47.33203125 C-56.81714737 32 -56.81714737 32 -54 32 C-54 31.34 -54 30.68 -54 30 C-52.63344975 29.04341482 -51.25824311 28.09740168 -49.84765625 27.20703125 C-47.13320593 25.43374341 -44.5940396 23.44366652 -42.02734375 21.46484375 C-39.76018882 19.82672603 -37.40423471 18.42886404 -35 17 C-29.12662617 13.17856865 -23.33149868 9.25370405 -17.625 5.1875 C-7.28044041 -2.02234456 -7.28044041 -2.02234456 0 0 Z " fill="#02A3FD" transform="translate(420,100)"/>
<path d="M0 0 C7.48874109 1.81499202 14.3212668 4.19820271 21.25 7.5625 C22.1567749 7.99941162 23.0635498 8.43632324 23.99780273 8.88647461 C32.16967254 12.91791113 39.6531156 17.6296563 47 23 C47.58201172 23.42265137 48.16402344 23.84530273 48.76367188 24.28076172 C58.06472065 31.06472065 58.06472065 31.06472065 61 34 C61 34.99 61 35.98 61 37 C60.34 37 59.68 37 59 37 C59 37.66 59 38.32 59 39 C57.63700524 39.95409633 56.26500527 40.89736011 54.85546875 41.78125 C52.04911233 43.62458306 49.45658287 45.73676632 46.83203125 47.828125 C45 49 45 49 42 49 C41.34 50.32 40.68 51.64 40 53 C39.01 53 38.02 53 37 53 C37 53.66 37 54.32 37 55 C34 57 34 57 31.5625 56.875 C28.52228253 55.83687696 27.08905886 54.39854906 25 52 C26.32 52 27.64 52 29 52 C29 52.66 29 53.32 29 54 C30.98 54 32.96 54 35 54 C35.0825 53.21625 35.165 52.4325 35.25 51.625 C36 49 36 49 37.9375 47.625 C40 47 40 47 42 48 C42 47.34 42 46.68 42 46 C43.32 46 44.64 46 46 46 C46 45.34 46 44.68 46 44 C48.475 43.505 48.475 43.505 51 43 C51 42.34 51 41.68 51 41 C51.66 40.67 52.32 40.34 53 40 C52.979375 39.030625 52.95875 38.06125 52.9375 37.0625 C53 34 53 34 54 33 C53.505 32.54625 53.01 32.0925 52.5 31.625 C51 30 51 30 51 28 C49.02 27.67 47.04 27.34 45 27 C45 26.01 45 25.02 45 24 C43.72125 23.7525 42.4425 23.505 41.125 23.25 C37.18258135 22.28691355 37.18258135 22.28691355 35.6875 19.9375 C35.460625 19.298125 35.23375 18.65875 35 18 C34.01 17.67 33.02 17.34 32 17 C32 16.34 32 15.68 32 15 C30.01432292 14.8046875 28.02864583 14.609375 26.04296875 14.4140625 C24 14 24 14 21 12 C21 11.34 21 10.68 21 10 C19.989375 9.896875 18.97875 9.79375 17.9375 9.6875 C13.78781792 8.96295233 10.78643737 7.77730734 7 6 C7 5.34 7 4.68 7 4 C2.545 3.01 2.545 3.01 -2 2 C-1.34 1.34 -0.68 0.68 0 0 Z " fill="#40AEE8" transform="translate(307,81)"/>
<path d="M0 0 C2.31 0 4.62 0 7 0 C7 0.66 7 1.32 7 2 C8.65 2.33 10.3 2.66 12 3 C12 3.66 12 4.32 12 5 C12.9075 4.95875 13.815 4.9175 14.75 4.875 C17.8782046 4.99531556 19.38614006 5.3914708 22 7 C22 7.66 22 8.32 22 9 C23.423125 8.9690625 23.423125 8.9690625 24.875 8.9375 C28 9 28 9 30 10 C31.53668865 10.22467831 33.07968054 10.40796805 34.625 10.5625 C35.44226563 10.64628906 36.25953125 10.73007812 37.1015625 10.81640625 C37.72804687 10.87699219 38.35453125 10.93757813 39 11 C39 11.66 39 12.32 39 13 C39.60062256 13.05534912 40.20124512 13.11069824 40.82006836 13.16772461 C43.52633131 13.41970782 46.23189884 13.6785117 48.9375 13.9375 C49.88302734 14.02451172 50.82855469 14.11152344 51.80273438 14.20117188 C52.70185547 14.28818359 53.60097656 14.37519531 54.52734375 14.46484375 C55.77632446 14.58267212 55.77632446 14.58267212 57.05053711 14.70288086 C59 15 59 15 60 16 C63.10085221 16.16041193 66.18187579 16.25963402 69.28515625 16.31640625 C70.68138466 16.3475779 70.68138466 16.3475779 72.1058197 16.37937927 C75.09130182 16.44497931 78.07687484 16.50380802 81.0625 16.5625 C83.08138976 16.6056753 85.1002702 16.64928925 87.11914062 16.69335938 C92.07933297 16.80067129 97.03961709 16.90190888 102 17 C102 16.34 102 15.68 102 15 C107.28 15 112.56 15 118 15 C106.99934622 20.50032689 93.95273031 19.44027017 81.9375 19.4375 C80.9591217 19.4385675 79.98074341 19.43963501 78.97271729 19.44073486 C63.14352279 19.41580394 48.31178338 18.33336265 33 14 C32.15421387 13.76474609 31.30842773 13.52949219 30.43701172 13.28710938 C19.81522512 10.24092448 9.87483532 5.92285301 0 1 C0 0.67 0 0.34 0 0 Z " fill="#2DA8E9" transform="translate(170,410)"/>
<path d="M0 0 C0.66 0.66 1.32 1.32 2 2 C1.24074219 2.95261719 0.48148437 3.90523437 -0.30078125 4.88671875 C-1.30484152 6.15352377 -2.3087392 7.42045768 -3.3125 8.6875 C-3.81201172 9.31333984 -4.31152344 9.93917969 -4.82617188 10.58398438 C-6.98778298 13.31820769 -8.96594767 15.94181126 -10.73046875 18.95703125 C-11.14941406 19.63121094 -11.56835938 20.30539063 -12 21 C-12.66 21 -13.32 21 -14 21 C-14.268125 21.7425 -14.53625 22.485 -14.8125 23.25 C-15.95276751 25.89061949 -17.09380306 27.85552844 -19 30 C-19.66 30 -20.32 30 -21 30 C-21.10183594 30.5671875 -21.20367187 31.134375 -21.30859375 31.71875 C-22.13349644 34.44046282 -23.38357281 36.2053387 -25.0625 38.5 C-32.41931867 48.7486028 -39.20844006 59.37246639 -46 70 C-46.33 69.34 -46.66 68.68 -47 68 C-46.67 67.01 -46.34 66.02 -46 65 C-45.34 65 -44.68 65 -44 65 C-44 63.68 -44 62.36 -44 61 C-43.34 61 -42.68 61 -42 61 C-41.855625 60.4225 -41.71125 59.845 -41.5625 59.25 C-41.376875 58.5075 -41.19125 57.765 -41 57 C-40.855625 56.38125 -40.71125 55.7625 -40.5625 55.125 C-40.376875 54.42375 -40.19125 53.7225 -40 53 C-39.773125 51.96875 -39.54625 50.9375 -39.3125 49.875 C-38.879375 48.92625 -38.44625 47.9775 -38 47 C-36.02111039 46.27306096 -34.02045442 45.60183749 -32 45 C-31.03122943 42.96756452 -31.03122943 42.96756452 -31 41 C-30.34 41 -29.68 41 -29 41 C-29 40.34 -29 39.68 -29 39 C-28.34 39 -27.68 39 -27 39 C-26.855625 38.401875 -26.71125 37.80375 -26.5625 37.1875 C-26.1127561 35.43849596 -25.57107659 33.71322977 -25 32 C-24.34 32 -23.68 32 -23 32 C-23.061875 31.236875 -23.12375 30.47375 -23.1875 29.6875 C-23 27 -23 27 -21.6875 25.1875 C-20 24 -20 24 -17 24 C-17 23.01 -17 22.02 -17 21 C-16.34 21 -15.68 21 -15 21 C-15 20.01 -15 19.02 -15 18 C-15.66 17.67 -16.32 17.34 -17 17 C-15.35 16.67 -13.7 16.34 -12 16 C-11.67 15.01 -11.34 14.02 -11 13 C-10.01 13 -9.02 13 -8 13 C-8 12.01 -8 11.02 -8 10 C-7.34 10 -6.68 10 -6 10 C-5.814375 9.1028125 -5.814375 9.1028125 -5.625 8.1875 C-5 6 -5 6 -3 3 C-2.34 3 -1.68 3 -1 3 C-0.67 2.01 -0.34 1.02 0 0 Z " fill="#43B3EA" transform="translate(338,211)"/>
<path d="M0 0 C0.33 0 0.66 0 1 0 C-0.70633668 26.06576383 -12.08143199 50.30340869 -26 72 C-27.07174763 68.34811918 -26.76411467 65.73567172 -26 62 C-25.01 62 -24.02 62 -23 62 C-21.68 58.7 -20.36 55.4 -19 52 C-18.34 52 -17.68 52 -17 52 C-16.82984375 51.2265625 -16.6596875 50.453125 -16.484375 49.65625 C-14.99021397 43.23453664 -13.2121897 37.75978843 -10 32 C-9.34 32 -8.68 32 -8 32 C-7.67 28.37 -7.34 24.74 -7 21 C-6.34 21 -5.68 21 -5 21 C-5.0825 20.21625 -5.165 19.4325 -5.25 18.625 C-4.95808543 14.39223867 -3.66996081 11.31571754 -1.97265625 7.46484375 C-0.99256052 4.98114735 -0.44493427 2.62745398 0 0 Z " fill="#4CB6E9" transform="translate(426,278)"/>
<path d="M0 0 C1.09062744 0.00265869 2.18125488 0.00531738 3.30493164 0.00805664 C10.25295755 0.04813653 17.18566606 0.21136442 24.125 0.5625 C25.31283081 0.62123291 25.31283081 0.62123291 26.5246582 0.68115234 C31.92869997 0.99559999 31.92869997 0.99559999 34.1875 2.125 C35.72418865 2.34967831 37.26718054 2.53296805 38.8125 2.6875 C39.62976563 2.77128906 40.44703125 2.85507813 41.2890625 2.94140625 C41.91554688 3.00199219 42.54203125 3.06257813 43.1875 3.125 C43.1875 3.785 43.1875 4.445 43.1875 5.125 C44.1775 5.62 44.1775 5.62 45.1875 6.125 C43.58279935 6.00705295 41.97876148 5.88009534 40.375 5.75 C39.48167969 5.68039063 38.58835937 5.61078125 37.66796875 5.5390625 C34.78400535 5.19596472 32.0545689 4.69480119 29.21484375 4.11328125 C22.3374824 2.84139666 15.54299839 2.69972504 8.5625 2.6875 C7.89263062 2.68576782 7.22276123 2.68403564 6.53259277 2.68225098 C-10.03698632 2.70089826 -26.08989308 5.20375545 -41.50878906 11.44433594 C-43.8125 12.125 -43.8125 12.125 -46.8125 11.125 C-46.1525 11.125 -45.4925 11.125 -44.8125 11.125 C-44.8125 10.465 -44.8125 9.805 -44.8125 9.125 C-43.8225 9.125 -42.8325 9.125 -41.8125 9.125 C-41.8125 8.465 -41.8125 7.805 -41.8125 7.125 C-39.5025 7.125 -37.1925 7.125 -34.8125 7.125 C-34.8125 6.465 -34.8125 5.805 -34.8125 5.125 C-33.98105469 5.00382812 -33.14960938 4.88265625 -32.29296875 4.7578125 C-31.20628906 4.59023437 -30.11960938 4.42265625 -29 4.25 C-27.92105469 4.08757812 -26.84210938 3.92515625 -25.73046875 3.7578125 C-22.63928207 3.27367662 -22.63928207 3.27367662 -19.8125 1.125 C-13.22537169 -0.05367075 -6.67655893 -0.02920002 0 0 Z " fill="#4BB2E4" transform="translate(242.8125,105.875)"/>
<path d="M0 0 C0.66 0.33 1.32 0.66 2 1 C0.74054645 2.67528263 -0.53293682 4.34002614 -1.8125 6 C-2.87404297 7.3921875 -2.87404297 7.3921875 -3.95703125 8.8125 C-4.63121094 9.534375 -5.30539062 10.25625 -6 11 C-6.99 11 -7.98 11 -9 11 C-9.33 12.98 -9.66 14.96 -10 17 C-10.99 17 -11.98 17 -13 17 C-14.98 21.455 -14.98 21.455 -17 26 C-18.32 25.67 -19.64 25.34 -21 25 C-20.731875 25.886875 -20.46375 26.77375 -20.1875 27.6875 C-20 31 -20 31 -22.1875 33.9375 C-25 36 -25 36 -27.0625 35.75 C-27.701875 35.5025 -28.34125 35.255 -29 35 C-31.18703385 35.37907282 -31.18703385 35.37907282 -33 36 C-30.13962237 31.48575473 -26.99743634 27.54769176 -23.375 23.625 C-22.88515625 23.07972656 -22.3953125 22.53445312 -21.890625 21.97265625 C-20.63770847 20.60677184 -19.32315912 19.29795609 -18 18 C-17.34 18 -16.68 18 -16 18 C-15.7525 17.443125 -15.505 16.88625 -15.25 16.3125 C-12.69192231 11.58005628 -9.37456435 8.10824309 -5 5 C-4.34 5 -3.68 5 -3 5 C-2.690625 4.360625 -2.38125 3.72125 -2.0625 3.0625 C-1 1 -1 1 0 0 Z " fill="#06A2F8" transform="translate(297,187)"/>
<path d="M0 0 C0.33 0 0.66 0 1 0 C1.06058594 0.69867188 1.12117188 1.39734375 1.18359375 2.1171875 C1.26738281 3.02726563 1.35117188 3.93734375 1.4375 4.875 C1.55931641 6.23238281 1.55931641 6.23238281 1.68359375 7.6171875 C1.86989285 10.01110861 1.86989285 10.01110861 3 12 C3.04773969 14.14530222 3.03695182 16.29198485 3 18.4375 C2.93806941 24.74266164 3.11613947 31.01539238 3.4375 37.3125 C3.47681641 38.14257568 3.51613281 38.97265137 3.55664062 39.82788086 C3.68994627 44.04929913 3.68994627 44.04929913 5 48 C5.31120284 50.55877893 5.50964666 53.11851612 5.71875 55.6875 C5.87136047 58.02268455 5.87136047 58.02268455 7 60 C7.13415472 62.6723621 7.04318541 65.32250488 7 68 C4.56618868 64.34928302 3.87312994 60.78785554 3 56.5625 C2.82629883 55.7264624 2.65259766 54.8904248 2.47363281 54.02905273 C-1.10964686 35.97315519 -1.51662266 18.30780208 0 0 Z " fill="#55BBF2" transform="translate(72,231)"/>
<path d="M0 0 C0.99 0.495 0.99 0.495 2 1 C2 1.66 2 2.32 2 3 C2.66 3 3.32 3 4 3 C4.3403125 4.60875 4.3403125 4.60875 4.6875 6.25 C6.16592211 10.47406317 7.60149005 11.31696583 11 14 C11.1484375 16.6171875 11.1484375 16.6171875 11 19 C13.62365356 19.38846807 16.24790856 19.76124888 18.875 20.125 C19.62136719 20.23714844 20.36773437 20.34929687 21.13671875 20.46484375 C23.08159197 20.72766446 25.04165038 20.8716515 27 21 C27.66 20.34 28.32 19.68 29 19 C30.32 19 31.64 19 33 19 C32.505 17.515 32.505 17.515 32 16 C33.32 15.67 34.64 15.34 36 15 C36 14.01 36 13.02 36 12 C36.66 12 37.32 12 38 12 C38 10.68 38 9.36 38 8 C38.99 8 39.98 8 41 8 C41.33 6.35 41.66 4.7 42 3 C42.66 3 43.32 3 44 3 C42.06006918 11.01838073 38.34389478 16.64765497 32 22 C25.84414237 24.51688863 20.68998115 24.87090728 14.4375 22.5 C7.23578207 19.02161923 2.64226914 11.3983536 0 4 C0 2.68 0 1.36 0 0 Z " fill="#4CB4E7" transform="translate(223,322)"/>
<path d="M0 0 C0 0.33 0 0.66 0 1 C-1.15113281 1.04898438 -2.30226563 1.09796875 -3.48828125 1.1484375 C-12.22520161 1.54817798 -20.92415486 2.09924987 -29.625 3 C-30.85923706 3.1244751 -30.85923706 3.1244751 -32.1184082 3.25146484 C-35.87251865 3.34535089 -35.87251865 3.34535089 -39 5 C-41.54606836 5.21365609 -44.07426639 5.37723742 -46.625 5.5 C-51.81009514 5.75782241 -56.8692534 6.19200841 -62 7 C-62 7.66 -62 8.32 -62 9 C-65.63 9 -69.26 9 -73 9 C-73.33 9.66 -73.66 10.32 -74 11 C-74.66 10.34 -75.32 9.68 -76 9 C-50.26334999 0.95827234 -26.76871464 -0.44012642 0 0 Z " fill="#4EB8EA" transform="translate(268,72)"/>
<path d="M0 0 C1.12491579 3.64358572 0.61410807 6.05073967 -0.33544922 9.73681641 C-3.01556559 20.36816206 -3.4009246 30.72993099 -3.375 41.625 C-3.37635956 42.3604303 -3.37771912 43.0958606 -3.37911987 43.85357666 C-3.37754504 51.38734814 -3.26474622 58.65925269 -1.32666016 65.99755859 C-0.95360723 68.28438975 -1.29758514 69.81149446 -2 72 C-2.33 69.69 -2.66 67.38 -3 65 C-3.66 65 -4.32 65 -5 65 C-5.80417017 60.76313323 -6.12846103 56.75934735 -6.1328125 52.44921875 C-6.13474609 51.20027832 -6.13667969 49.95133789 -6.13867188 48.66455078 C-6.13416016 47.35212402 -6.12964844 46.03969727 -6.125 44.6875 C-6.12411377 44.01958435 -6.12322754 43.3516687 -6.12231445 42.66351318 C-6.10629605 32.41204252 -5.83913421 22.21945589 -5 12 C-4.34 12 -3.68 12 -3 12 C-3.061875 10.7625 -3.12375 9.525 -3.1875 8.25 C-3.20362826 5.21788698 -3.10651023 4.17751704 -1.5 1.5 C-1.005 1.005 -0.51 0.51 0 0 Z " fill="#44ADE3" transform="translate(112,210)"/>
<path d="M0 0 C0.66 0.33 1.32 0.66 2 1 C-0.75 5.875 -0.75 5.875 -3 7 C-3 8.32 -3 9.64 -3 11 C-3.66 11.66 -4.32 12.32 -5 13 C-5 14.32 -5 15.64 -5 17 C-6.65 17 -8.3 17 -10 17 C-10 18.98 -10 20.96 -10 23 C-11.051875 23.309375 -12.10375 23.61875 -13.1875 23.9375 C-18.18624292 26.0101495 -19.85741711 30.2902671 -22 35 C-22.99 35 -23.98 35 -25 35 C-23.55886599 29.28917084 -20.61589959 25.4297738 -17.0625 20.875 C-16.52431641 20.17246094 -15.98613281 19.46992188 -15.43164062 18.74609375 C-14.40347028 17.40478151 -13.37068589 16.06698886 -12.33251953 14.73339844 C-11.26946597 13.35053286 -10.24995219 11.9342305 -9.24609375 10.5078125 C-8.83488281 10.01023438 -8.42367187 9.51265625 -8 9 C-7.34 9 -6.68 9 -6 9 C-5.7525 8.443125 -5.505 7.88625 -5.25 7.3125 C-3.78393985 4.60028873 -1.97010529 2.36412635 0 0 Z " fill="#2CABED" transform="translate(122,125)"/>
<path d="M0 0 C0.66 0.33 1.32 0.66 2 1 C1.54109375 1.58007812 1.0821875 2.16015625 0.609375 2.7578125 C-0.00421875 3.53898438 -0.6178125 4.32015625 -1.25 5.125 C-1.85328125 5.89070312 -2.4565625 6.65640625 -3.078125 7.4453125 C-11.65920382 18.8518685 -19.08965383 31.58700177 -24 45 C-24.97591583 41.61682513 -24.85856655 39.4342662 -24 36 C-23.34 36 -22.68 36 -22 36 C-22 34.68 -22 33.36 -22 32 C-21.34 32 -20.68 32 -20 32 C-20.061875 31.05125 -20.12375 30.1025 -20.1875 29.125 C-20.125625 28.09375 -20.06375 27.0625 -20 26 C-19.01 25.34 -18.02 24.68 -17 24 C-16.27034634 21.43717258 -16.27034634 21.43717258 -16 19 C-15.34 19 -14.68 19 -14 19 C-13.67 17.68 -13.34 16.36 -13 15 C-12.01 15 -11.02 15 -10 15 C-10 12.69 -10 10.38 -10 8 C-9.195625 7.71125 -8.39125 7.4225 -7.5625 7.125 C-4.8673532 6.26737432 -4.8673532 6.26737432 -4 4 C-3.34 4 -2.68 4 -2 4 C-2 3.01 -2 2.02 -2 1 C-1.34 0.67 -0.68 0.34 0 0 Z " fill="#51B8E9" transform="translate(141,156)"/>
<path d="M0 0 C0 0.99 0 1.98 0 3 C-0.66 3 -1.32 3 -2 3 C-2 3.66 -2 4.32 -2 5 C-3.36299476 5.95409633 -4.73499473 6.89736011 -6.14453125 7.78125 C-8.95088767 9.62458306 -11.54341713 11.73676632 -14.16796875 13.828125 C-16 15 -16 15 -19 15 C-19.66 16.32 -20.32 17.64 -21 19 C-21.99 19 -22.98 19 -24 19 C-24 19.66 -24 20.32 -24 21 C-27 23 -27 23 -29.4375 22.875 C-32.47771747 21.83687696 -33.91094114 20.39854906 -36 18 C-34.68 18 -33.36 18 -32 18 C-32 18.66 -32 19.32 -32 20 C-30.02 20 -28.04 20 -26 20 C-25.9175 19.21625 -25.835 18.4325 -25.75 17.625 C-25 15 -25 15 -23.0625 13.625 C-21 13 -21 13 -19 14 C-19 13.34 -19 12.68 -19 12 C-17.68 12 -16.36 12 -15 12 C-15 11.34 -15 10.68 -15 10 C-13.35 9.67 -11.7 9.34 -10 9 C-10 8.34 -10 7.68 -10 7 C-9.34 6.67 -8.68 6.34 -8 6 C-8 4.02 -8 2.04 -8 0 C-4.71023192 -1.09658936 -3.28696233 -0.79953138 0 0 Z " fill="#37AFEB" transform="translate(368,115)"/>
<path d="M0 0 C3.65353155 1.43643121 4.93978166 3.05835031 6.75 6.5 C7.17796875 7.2940625 7.6059375 8.088125 8.046875 8.90625 C9 11 9 11 9 13 C8.34 13 7.68 13 7 13 C7 12.01 7 11.02 7 10 C6.34 10 5.68 10 5 10 C3.375 8.6875 3.375 8.6875 2 7 C2 6.01 2 5.02 2 4 C-0.69889508 5.79926339 -1.78221797 6.8189838 -3.5625 9.375 C-4.00078125 9.99503906 -4.4390625 10.61507812 -4.890625 11.25390625 C-6.10478019 13.01951552 -6.10478019 13.01951552 -6.8125 15.3125 C-8.3728221 17.52979982 -9.45632952 17.48951216 -12.0625 18.0625 C-12.77535156 18.17722656 -13.48820312 18.29195312 -14.22265625 18.41015625 C-14.80917969 18.60480469 -15.39570313 18.79945313 -16 19 C-16.33 19.99 -16.66 20.98 -17 22 C-19.5625 23.6875 -19.5625 23.6875 -22 25 C-20.43387807 21.15588253 -17.97905879 18.84049791 -15 16 C-11.34748797 12.44360671 -7.96979213 8.72957727 -4.6484375 4.8671875 C-3.15535018 3.17596537 -1.61414247 1.57501175 0 0 Z " fill="#2BA8EC" transform="translate(401,157)"/>
<path d="M0 0 C1 2 1 2 0.3125 5 C-1 8 -1 8 -3.0625 9 C-3.701875 9.33 -4.34125 9.66 -5 10 C-5.38133299 11.9914056 -5.71325582 13.99279077 -6 16 C-7.81368005 18.7682485 -8.89293126 18.97690674 -12.1875 19.6875 C-13.115625 19.790625 -14.04375 19.89375 -15 20 C-15.33 19.01 -15.66 18.02 -16 17 C-18.01508358 16.26676204 -18.01508358 16.26676204 -20 16 C-20 15.01 -20 14.02 -20 13 C-20.66 13 -21.32 13 -22 13 C-22 12.01 -22 11.02 -22 10 C-23.32 9.67 -24.64 9.34 -26 9 C-25.67 7.68 -25.34 6.36 -25 5 C-24.22914063 5.7940625 -23.45828125 6.588125 -22.6640625 7.40625 C-21.65130683 8.43776041 -20.63827148 9.46899627 -19.625 10.5 C-18.86316406 11.28697266 -18.86316406 11.28697266 -18.0859375 12.08984375 C-16.76167396 13.43153181 -15.38394135 14.71995815 -14 16 C-13.34 16 -12.68 16 -12 16 C-10.35388343 13.95497969 -10.35388343 13.95497969 -8.6875 11.375 C-5.97270537 7.37664139 -3.16682827 3.64665074 0 0 Z " fill="#11A0ED" transform="translate(259,228)"/>
<path d="M0 0 C0.28875 0.598125 0.5775 1.19625 0.875 1.8125 C2.04742026 4.19327792 2.04742026 4.19327792 4 7 C4.20826534 9.58360097 4.30403037 12.05633981 4.30078125 14.640625 C4.30506638 15.39986267 4.3093515 16.15910034 4.31376648 16.94134521 C4.31951361 18.55528774 4.32000722 20.16925618 4.31567383 21.78320312 C4.31256472 24.19970002 4.33578593 26.6149092 4.36132812 29.03125 C4.45703631 52.36244443 4.45703631 52.36244443 -1 62 C0 53 0 53 0.52734375 49.1015625 C1.25505545 42.52084311 1.14478836 35.92510986 1.125 29.3125 C1.12886719 28.03955078 1.13273437 26.76660156 1.13671875 25.45507812 C1.12803994 16.91946622 0.72212719 8.50350006 0 0 Z " fill="#62BDE8" transform="translate(391,222)"/>
<path d="M0 0 C0.33 0 0.66 0 1 0 C4.8562444 14.70193178 5.37553533 28.94977857 5.3125 44.0625 C5.30968018 45.00671814 5.30686035 45.95093628 5.30395508 46.92376709 C5.29142585 49.64857874 5.26820845 52.37298373 5.23828125 55.09765625 C5.23073318 55.92085861 5.22318512 56.74406097 5.21540833 57.59220886 C5.15082385 61.51677421 4.95642681 65.1680353 4 69 C3.67 69 3.34 69 3 69 C3.00785522 67.81579468 3.00785522 67.81579468 3.01586914 66.60766602 C3.365924 44.77306003 3.365924 44.77306003 2 23 C1.67 22.67 1.34 22.34 1 22 C0.84285346 20.36743242 0.74914586 18.72864662 0.68359375 17.08984375 C0.64169922 16.10048828 0.59980469 15.11113281 0.55664062 14.09179688 C0.51732422 13.05087891 0.47800781 12.00996094 0.4375 10.9375 C0.39431641 9.89271484 0.35113281 8.84792969 0.30664062 7.77148438 C0.20018775 5.18113116 0.0981724 2.59067814 0 0 Z " fill="#55B4E2" transform="translate(424,208)"/>
<path d="M0 0 C0 1.32 0 2.64 0 4 C-0.56589844 4.19335938 -1.13179688 4.38671875 -1.71484375 4.5859375 C-2.81505859 4.97652344 -2.81505859 4.97652344 -3.9375 5.375 C-4.66839844 5.63023438 -5.39929688 5.88546875 -6.15234375 6.1484375 C-8.18682116 6.85271413 -8.18682116 6.85271413 -9 9 C-12.06123492 10.84829278 -15.03261188 12.58167 -18.3125 14 C-20.17026074 14.88268412 -20.17026074 14.88268412 -20.875 16.9375 C-22.53904926 19.98825697 -24.86885672 20.69535697 -28 22 C-28.66 22 -29.32 22 -30 22 C-30.33 22.99 -30.66 23.98 -31 25 C-32.98 25.33 -34.96 25.66 -37 26 C-35.37660195 24.29115995 -33.70680947 22.62553283 -32 21 C-31.34 21 -30.68 21 -30 21 C-30 20.34 -30 19.68 -30 19 C-28.63344975 18.04341482 -27.25824311 17.09740168 -25.84765625 16.20703125 C-23.80240187 14.8709137 -21.87794831 13.42137224 -19.9375 11.9375 C-17.04629214 9.75000122 -14.13120733 7.83290185 -11 6 C-8.65494668 4.41339924 -6.31789228 2.81622475 -3.98828125 1.20703125 C-2 0 -2 0 0 0 Z " fill="#46B2E9" transform="translate(396,111)"/>
<path d="M0 0 C-0.33 1.65 -0.66 3.3 -1 5 C-1.969375 5.268125 -2.93875 5.53625 -3.9375 5.8125 C-4.948125 6.204375 -5.95875 6.59625 -7 7 C-7.33 7.99 -7.66 8.98 -8 10 C-10.24508043 12.80635053 -12.61046988 13.89840271 -16 15 C-16.99 15 -17.98 15 -19 15 C-19.226875 15.639375 -19.45375 16.27875 -19.6875 16.9375 C-21 19 -21 19 -23.625 19.75 C-24.40875 19.8325 -25.1925 19.915 -26 20 C-26 20.66 -26 21.32 -26 22 C-28.06942576 24.5867822 -29.75728494 25.4409112 -33 26 C-33 25.34 -33 24.68 -33 24 C-30.97422532 22.25060538 -28.94056638 20.61704129 -26.8125 19 C-26.18553223 18.51595703 -25.55856445 18.03191406 -24.91259766 17.53320312 C-23.60123881 16.52198733 -22.28771551 15.51357294 -20.97216797 14.5078125 C-19.08242221 13.06301554 -17.19843649 11.61107716 -15.31640625 10.15625 C-12.21712321 7.7627016 -9.11243187 5.37644371 -6 3 C-4.89011719 2.11828125 -4.89011719 2.11828125 -3.7578125 1.21875 C-2 0 -2 0 0 0 Z " fill="#50B7EC" transform="translate(359,137)"/>
<path d="M0 0 C1.32 0.33 2.64 0.66 4 1 C4.33 2.98 4.66 4.96 5 7 C5.99 7 6.98 7 8 7 C8.33 8.98 8.66 10.96 9 13 C10.32 13.33 11.64 13.66 13 14 C12.67 15.32 12.34 16.64 12 18 C12.66 18 13.32 18 14 18 C14.28875 18.969375 14.5775 19.93875 14.875 20.9375 C15.64214682 24.10664203 15.64214682 24.10664203 18 25 C18.88671875 27.1796875 18.88671875 27.1796875 19.6875 29.875 C19.95949219 30.75929688 20.23148438 31.64359375 20.51171875 32.5546875 C21 35 21 35 20 38 C15.39527369 29.46032575 10.91684058 20.88146722 6.609375 12.1875 C4.52371816 8.05668451 2.30358838 4.01270234 0 0 Z " fill="#47B2E7" transform="translate(193,266)"/>
<path d="M0 0 C2.31 0 4.62 0 7 0 C7 0.66 7 1.32 7 2 C8.65 2.33 10.3 2.66 12 3 C12 3.66 12 4.32 12 5 C12.9075 4.95875 13.815 4.9175 14.75 4.875 C17.8782046 4.99531556 19.38614006 5.3914708 22 7 C22 7.66 22 8.32 22 9 C22.804375 8.938125 23.60875 8.87625 24.4375 8.8125 C30.47015213 9.13000801 36.4575068 10.85250621 41 15 C35.1642559 14.43418941 29.9780196 13.26899669 24.4375 11.375 C23.66680176 11.1157373 22.89610352 10.85647461 22.10205078 10.58935547 C14.46775647 7.94641385 7.22287835 4.60078596 0 1 C0 0.67 0 0.34 0 0 Z " fill="#4DB3EB" transform="translate(170,410)"/>
<path d="M0 0 C5.28 0 10.56 0 16 0 C7.92734341 4.0363283 -0.80766173 4.29665571 -9.69921875 4.1953125 C-11.14081108 4.19106766 -11.14081108 4.19106766 -12.61152649 4.18673706 C-15.63698567 4.17567314 -18.66213253 4.15059573 -21.6875 4.125 C-23.75715714 4.11495233 -25.82681899 4.10582964 -27.89648438 4.09765625 C-32.93110723 4.07577923 -37.96550094 4.0413472 -43 4 C-43 3.67 -43 3.34 -43 3 C-28.81 2.67 -14.62 2.34 0 2 C0 1.34 0 0.68 0 0 Z " fill="#62BCE6" transform="translate(272,425)"/>
<path d="M0 0 C0 0.33 0 0.66 0 1 C-5.94 1 -11.88 1 -18 1 C-18.33 1.99 -18.66 2.98 -19 4 C-19.51175781 4.40863281 -20.02351562 4.81726563 -20.55078125 5.23828125 C-22.84686324 8.02947526 -22.28451336 10.66268126 -22.1875 14.1875 C-22.16042969 15.45980469 -22.13335937 16.73210937 -22.10546875 18.04296875 C-22.05326172 19.50669922 -22.05326172 19.50669922 -22 21 C-24.6399773 18.3600227 -24.95162761 16.49339836 -25.3125 12.8125 C-24.85134947 7.18646352 -23.00950236 2.94860835 -18.9375 -1 C-12.57918279 -3.16453352 -6.08117468 -2.76517182 0 0 Z " fill="#51B5E8" transform="translate(178,192)"/>
<path d="M0 0 C0.33 0 0.66 0 1 0 C1.14576359 4.15426234 1.20616529 7.31707747 0 11.3125 C-1.16188339 15.596945 -1.11084425 19.33218791 -0.97265625 23.7421875 C-1 26 -1 26 -2 27 C-2.23192865 28.51469448 -2.41215238 30.03754562 -2.5625 31.5625 C-2.64628906 32.38878906 -2.73007813 33.21507812 -2.81640625 34.06640625 C-2.87699219 34.70449219 -2.93757813 35.34257812 -3 36 C-3.495 34.515 -3.495 34.515 -4 33 C-4.66 33 -5.32 33 -6 33 C-5.23151806 21.59411011 -3.9503403 10.77365537 0 0 Z " fill="#32A9E3" transform="translate(79,198)"/>
<path d="M0 0 C6.98460463 1.42059755 13.20757906 3.84548148 19.5625 7 C20.26503906 7.34417969 20.96757812 7.68835938 21.69140625 8.04296875 C25.04654011 9.75330066 26.87442874 10.81164311 29 14 C25.28400809 14.20086443 24.22791555 14.1519437 21 12 C21 11.34 21 10.68 21 10 C19.989375 9.896875 18.97875 9.79375 17.9375 9.6875 C13.78781792 8.96295233 10.78643737 7.77730734 7 6 C7 5.34 7 4.68 7 4 C2.545 3.01 2.545 3.01 -2 2 C-1.34 1.34 -0.68 0.68 0 0 Z " fill="#4CB6EA" transform="translate(307,81)"/>
<path d="M0 0 C0 0.99 0 1.98 0 3 C-0.62044189 3.08564209 -1.24088379 3.17128418 -1.88012695 3.25952148 C-4.69133434 3.6492433 -7.50191423 4.0433213 -10.3125 4.4375 C-11.28896484 4.57220703 -12.26542969 4.70691406 -13.27148438 4.84570312 C-14.20927734 4.97783203 -15.14707031 5.10996094 -16.11328125 5.24609375 C-16.97735596 5.36654053 -17.84143066 5.4869873 -18.73168945 5.61108398 C-21.15558126 5.96777075 -21.15558126 5.96777075 -24 7 C-26.57265818 7.07029121 -29.11641431 7.09370832 -31.6875 7.0625 C-32.38939453 7.05798828 -33.09128906 7.05347656 -33.81445312 7.04882812 C-35.54300538 7.03706927 -37.27151365 7.01913454 -39 7 C-39 6.34 -39 5.68 -39 5 C-38.3608667 4.95512451 -37.7217334 4.91024902 -37.06323242 4.86401367 C-34.10372149 4.64974199 -31.14573498 4.41869744 -28.1875 4.1875 C-27.18267578 4.11724609 -26.17785156 4.04699219 -25.14257812 3.97460938 C-18.98234588 3.47941386 -13.36717725 2.46671673 -7.46606445 0.61450195 C-4.88509865 -0.02863149 -2.6488785 -0.10806311 0 0 Z " fill="#54B9E7" transform="translate(293,388)"/>
<path d="M0 0 C-1.05058594 0.50789063 -2.10117188 1.01578125 -3.18359375 1.5390625 C-10.1179875 4.92695251 -16.83459075 8.29027314 -23.16015625 12.74609375 C-25.66420798 14.45267677 -28.25216255 15.73176733 -31 17 C-30.67 15.35 -30.34 13.7 -30 12 C-28.35 12 -26.7 12 -25 12 C-24.67 10.68 -24.34 9.36 -24 8 C-22.35 8 -20.7 8 -19 8 C-19 7.34 -19 6.68 -19 6 C-18.01 6 -17.02 6 -16 6 C-16 5.34 -16 4.68 -16 4 C-14.68 4 -13.36 4 -12 4 C-12 3.34 -12 2.68 -12 2 C-10.68 2 -9.36 2 -8 2 C-8 1.34 -8 0.68 -8 0 C-4.90645403 -0.99435406 -3.09720845 -0.87840996 0 0 Z " fill="#5ABBEA" transform="translate(196,119)"/>
<path d="M0 0 C5.46318767 -0.15235982 10.5553109 0.39957172 15.9375 1.3125 C16.69740234 1.43044922 17.45730469 1.54839844 18.24023438 1.66992188 C23.47690714 2.54195534 28.06272535 4.05677319 33 6 C34.98956785 6.39080797 36.98806977 6.74850872 39 7 C39 7.33 39 7.66 39 8 C32.35590042 8.21432579 26.46794133 7.51233701 20 6 C20 5.34 20 4.68 20 4 C19.15695312 4.02320312 18.31390625 4.04640625 17.4453125 4.0703125 C15.80175781 4.09738281 15.80175781 4.09738281 14.125 4.125 C13.03445313 4.14820312 11.94390625 4.17140625 10.8203125 4.1953125 C8 4 8 4 6 2 C4.01178687 1.60235737 2.01055661 1.26224651 0 1 C0 0.67 0 0.34 0 0 Z " fill="#6CC2EE" transform="translate(268,73)"/>
<path d="M0 0 C0.33 0 0.66 0 1 0 C0.2033884 12.16892897 -2.93374654 23.54431132 -7 35 C-7.33 35 -7.66 35 -8 35 C-7.67 30.38 -7.34 25.76 -7 21 C-6.34 21 -5.68 21 -5 21 C-5.0825 20.21625 -5.165 19.4325 -5.25 18.625 C-4.95808543 14.39223867 -3.66996081 11.31571754 -1.97265625 7.46484375 C-0.99256052 4.98114735 -0.44493427 2.62745398 0 0 Z " fill="#5EBAE9" transform="translate(426,278)"/>
<path d="M0 0 C0.33 0 0.66 0 1 0 C1.13277344 1.20398438 1.26554687 2.40796875 1.40234375 3.6484375 C1.5805302 5.22398085 1.7589265 6.79950047 1.9375 8.375 C2.02451172 9.1690625 2.11152344 9.963125 2.20117188 10.78125 C2.6038935 15.02255001 2.6038935 15.02255001 4 19 C4.31120284 21.55877893 4.50964666 24.11851612 4.71875 26.6875 C4.87136047 29.02268455 4.87136047 29.02268455 6 31 C6.13415472 33.6723621 6.04318541 36.32250488 6 39 C3.53759566 35.30639348 2.78716331 31.64854435 1.875 27.375 C1.69614258 26.5399292 1.51728516 25.7048584 1.33300781 24.84448242 C-0.31420077 16.52137275 -0.38930753 8.44581055 0 0 Z " fill="#4EAEE2" transform="translate(73,260)"/>
<path d="M0 0 C0.66 0.33 1.32 0.66 2 1 C0.74054645 2.67528263 -0.53293682 4.34002614 -1.8125 6 C-2.87404297 7.3921875 -2.87404297 7.3921875 -3.95703125 8.8125 C-4.63121094 9.534375 -5.30539062 10.25625 -6 11 C-6.99 11 -7.98 11 -9 11 C-9.33 12.98 -9.66 14.96 -10 17 C-11.65 17 -13.3 17 -15 17 C-15.04125 17.61875 -15.0825 18.2375 -15.125 18.875 C-15.41375 19.57625 -15.7025 20.2775 -16 21 C-19.0625 22.25 -19.0625 22.25 -22 23 C-20.71937515 21.2925002 -19.38232443 19.62626404 -18 18 C-17.34 18 -16.68 18 -16 18 C-15.7525 17.443125 -15.505 16.88625 -15.25 16.3125 C-12.69192231 11.58005628 -9.37456435 8.10824309 -5 5 C-4.34 5 -3.68 5 -3 5 C-2.690625 4.360625 -2.38125 3.72125 -2.0625 3.0625 C-1 1 -1 1 0 0 Z " fill="#56B8E9" transform="translate(297,187)"/>
<path d="M0 0 C0.99 0.99 1.98 1.98 3 3 C1.21568681 5.33930023 -0.57684069 7.6713837 -2.375 10 C-2.88289063 10.66773438 -3.39078125 11.33546875 -3.9140625 12.0234375 C-4.40390625 12.65507812 -4.89375 13.28671875 -5.3984375 13.9375 C-5.84880371 14.52402344 -6.29916992 15.11054688 -6.76318359 15.71484375 C-7.17133301 16.13894531 -7.57948242 16.56304687 -8 17 C-8.66 17 -9.32 17 -10 17 C-10.12375 17.639375 -10.2475 18.27875 -10.375 18.9375 C-10.58125 19.618125 -10.7875 20.29875 -11 21 C-11.66 21.33 -12.32 21.66 -13 22 C-13 19.69 -13 17.38 -13 15 C-11.68 15 -10.36 15 -9 15 C-9 14.34 -9 13.68 -9 13 C-8.34 13 -7.68 13 -7 13 C-6.8453125 11.329375 -6.8453125 11.329375 -6.6875 9.625 C-6.460625 8.42875 -6.23375 7.2325 -6 6 C-3 4 -3 4 0 4 C0 2.68 0 1.36 0 0 Z " fill="#3EB2EE" transform="translate(354,189)"/>
<path d="M0 0 C-1.55603771 3.81936528 -3.95604931 6.26044438 -7 9 C-7.66 9 -8.32 9 -9 9 C-9.226875 9.53625 -9.45375 10.0725 -9.6875 10.625 C-11.43382056 13.78500863 -13.6402849 16.2676983 -16 19 C-16 15.88772805 -15.54372951 13.05847848 -15 10 C-13.68 10 -12.36 10 -11 10 C-11 9.34 -11 8.68 -11 8 C-10.34 8 -9.68 8 -9 8 C-9 7.01 -9 6.02 -9 5 C-8.34 4.34 -7.68 3.68 -7 3 C-6.67 2.34 -6.34 1.68 -6 1 C-3 0 -3 0 0 0 Z " fill="#56BAEB" transform="translate(384,161)"/>
<path d="M0 0 C0.66 0.99 1.32 1.98 2 3 C1.01 3 0.02 3 -1 3 C-1 2.34 -1 1.68 -1 1 C-2.31471568 1.28151087 -3.62675767 1.57553339 -4.9375 1.875 C-5.66839844 2.03742188 -6.39929688 2.19984375 -7.15234375 2.3671875 C-9.20700294 2.82961523 -9.20700294 2.82961523 -10 5 C-10.66 5 -11.32 5 -12 5 C-12 5.99 -12 6.98 -12 8 C-15.99000166 9.42500059 -19.80530429 10.40075776 -24 11 C-17.70113098 4.19722146 -9.61605115 -2.58893685 0 0 Z " fill="#5DBAE9" transform="translate(420,100)"/>
<path d="M0 0 C0.66 0 1.32 0 2 0 C0.2010497 5.07634826 -2.49026455 9.63713611 -5.125 14.3125 C-5.59292969 15.14845703 -6.06085938 15.98441406 -6.54296875 16.84570312 C-7.6926259 18.89866233 -8.84503802 20.95002202 -10 23 C-10.66 23 -11.32 23 -12 23 C-12 21.35 -12 19.7 -12 18 C-11.34 18 -10.68 18 -10 18 C-9.34 16.35 -8.68 14.7 -8 13 C-7.34 13 -6.68 13 -6 13 C-6.05929687 12.26394531 -6.11859375 11.52789062 -6.1796875 10.76953125 C-5.96671585 7.48698998 -5.1379315 6.24459719 -3.125 3.6875 C-2.59132813 2.99011719 -2.05765625 2.29273438 -1.5078125 1.57421875 C-1.01023437 1.05472656 -0.51265625 0.53523438 0 0 Z " fill="#51B6E6" transform="translate(289,281)"/>
<path d="M0 0 C4.75196791 0.55905505 9.46454631 1.23194685 14.1875 2 C20.77283061 3.03329544 27.34990457 3.58640978 34 4 C34 4.33 34 4.66 34 5 C21.25 7.125 21.25 7.125 17 5 C14.1245468 4.60684921 11.25888154 4.25350975 8.375 3.9375 C7.57320312 3.84662109 6.77140625 3.75574219 5.9453125 3.66210938 C3.96392132 3.43802347 1.98200695 3.2185725 0 3 C0 2.01 0 1.02 0 0 Z " fill="#68C4EC" transform="translate(213,389)"/>
<path d="M0 0 C0.33 0.66 0.66 1.32 1 2 C0.67 2.99 0.34 3.98 0 5 C0.66 5.33 1.32 5.66 2 6 C0.35 6 -1.3 6 -3 6 C-3.33 7.32 -3.66 8.64 -4 10 C-5.11375 10.2475 -6.2275 10.495 -7.375 10.75 C-11.04615198 11.61005339 -11.04615198 11.61005339 -12.4375 14.125 C-12.623125 14.74375 -12.80875 15.3625 -13 16 C-14.32 15.67 -15.64 15.34 -17 15 C-16.38125 14.7525 -15.7625 14.505 -15.125 14.25 C-12.88562481 13.21193225 -12.88562481 13.21193225 -12.21875 11.21875 C-10.5117279 8.11109439 -8.14361733 6.43913929 -5.375 4.25 C-4.37210937 3.45078125 -3.36921875 2.6515625 -2.3359375 1.828125 C-1.56507813 1.22484375 -0.79421875 0.6215625 0 0 Z " fill="#33AFE9" transform="translate(316,170)"/>
<path d="M0 0 C0.66 0 1.32 0 2 0 C2.82200425 6.24723226 -0.07448606 10.71317837 -3 16 C-3.66 16 -4.32 16 -5 16 C-5.33 16.66 -5.66 17.32 -6 18 C-4.95518663 11.29119838 -3.30199356 5.9435884 0 0 Z " fill="#36AEEB" transform="translate(416,310)"/>
<path d="M0 0 C3.65880741 1.5692787 6.25527628 3.8319796 9.1875 6.5 C10.06792969 7.2940625 10.94835937 8.088125 11.85546875 8.90625 C14 11 14 11 15 13 C14.34 13 13.68 13 13 13 C12.67 13.66 12.34 14.32 12 15 C12 13.68 12 12.36 12 11 C10.02 11.33 8.04 11.66 6 12 C5.73445312 11.44570312 5.46890625 10.89140625 5.1953125 10.3203125 C4.84210938 9.59585938 4.48890625 8.87140625 4.125 8.125 C3.77695313 7.40570313 3.42890625 6.68640625 3.0703125 5.9453125 C2.03442457 3.84864981 2.03442457 3.84864981 0 2 C0 1.34 0 0.68 0 0 Z " fill="#4EBBE9" transform="translate(208,210)"/>
<path d="M0 0 C4.455 0.99 4.455 0.99 9 2 C9.33 3.65 9.66 5.3 10 7 C11.32 7 12.64 7 14 7 C15.26526079 8.4599163 16.52515421 9.92764824 17.6953125 11.46484375 C19.48223845 13.56742428 21.56614329 14.74830226 24 16 C18.3381563 16 13.74904197 11.55480795 9.1875 8.4375 C8.59001953 8.03853516 7.99253906 7.63957031 7.37695312 7.22851562 C5.88096544 6.2044052 4.43534408 5.10750561 3 4 C3 3.34 3 2.68 3 2 C2.01 1.67 1.02 1.34 0 1 C0 0.67 0 0.34 0 0 Z " fill="#5CBCEA" transform="translate(135,387)"/>
<path d="M0 0 C0.33 0 0.66 0 1 0 C1.01981934 0.70495605 1.03963867 1.40991211 1.06005859 2.13623047 C1.15631269 5.38281211 1.26557876 8.6288365 1.375 11.875 C1.42140625 13.53789062 1.42140625 13.53789062 1.46875 15.234375 C1.68312997 21.30847412 2.20037403 26.97995943 3.68212891 32.88330078 C4.03322564 35.2212491 3.72058219 36.76739724 3 39 C2.67 36.69 2.34 34.38 2 32 C1.34 32 0.68 32 0 32 C-0.81633513 27.80563163 -1.06893987 23.99176143 -0.87890625 19.7265625 C-0.83056641 18.57285156 -0.78222656 17.41914063 -0.73242188 16.23046875 C-0.67634766 15.04066406 -0.62027344 13.85085938 -0.5625 12.625 C-0.51029297 11.41199219 -0.45808594 10.19898438 -0.40429688 8.94921875 C-0.27509608 5.96585487 -0.14014959 2.98286627 0 0 Z " fill="#74C8EE" transform="translate(107,243)"/>
<path d="M0 0 C0.99 0 1.98 0 3 0 C3 1.65 3 3.3 3 5 C3.99 5.33 4.98 5.66 6 6 C7.16796875 8.51171875 7.16796875 8.51171875 8.1875 11.6875 C8.53167969 12.72261719 8.87585938 13.75773438 9.23046875 14.82421875 C10.00252624 18.01042557 10.14191051 20.73605818 10 24 C8.06111169 21.09166753 6.86731074 18.41904063 5.5625 15.1875 C4.20164368 11.85380463 2.82155574 8.64926473 1.1875 5.4375 C0 3 0 3 0 0 Z " fill="#4DB4E8" transform="translate(377,183)"/>
<path d="M0 0 C0.33 0.66 0.66 1.32 1 2 C0.06553465 4.03144641 -0.93224776 6.03533587 -2 8 C-3.32 7.67 -4.64 7.34 -6 7 C-5.67 8.65 -5.34 10.3 -5 12 C-9.43076923 14.09230769 -9.43076923 14.09230769 -12.3125 13.625 C-12.869375 13.41875 -13.42625 13.2125 -14 13 C-12.33333333 11.33333333 -10.66666667 9.66666667 -9 8 C-8.1646875 7.1028125 -8.1646875 7.1028125 -7.3125 6.1875 C-6 5 -6 5 -4 5 C-3.67 4.01 -3.34 3.02 -3 2 C-2.01 1.34 -1.02 0.68 0 0 Z " fill="#38AEEB" transform="translate(138,111)"/>
<path d="M0 0 C0 1.32 0 2.64 0 4 C-0.56589844 4.19335938 -1.13179688 4.38671875 -1.71484375 4.5859375 C-2.81505859 4.97652344 -2.81505859 4.97652344 -3.9375 5.375 C-5.03384766 5.75785156 -5.03384766 5.75785156 -6.15234375 6.1484375 C-8.18682116 6.85271413 -8.18682116 6.85271413 -9 9 C-11.21484375 10.32421875 -11.21484375 10.32421875 -13.9375 11.6875 C-14.83339844 12.14511719 -15.72929687 12.60273437 -16.65234375 13.07421875 C-17.42707031 13.37972656 -18.20179688 13.68523437 -19 14 C-19.66 13.67 -20.32 13.34 -21 13 C-17.79055272 10.34074368 -14.58269369 8.11704627 -11 6 C-8.65488622 4.41347955 -6.31789619 2.81622745 -3.98828125 1.20703125 C-2 0 -2 0 0 0 Z " fill="#59BCE8" transform="translate(396,111)"/>
<path d="M0 0 C0.66 0 1.32 0 2 0 C2 1.65 2 3.3 2 5 C5.04913228 6.01111093 5.04913228 6.01111093 8 5 C7.67 8.3 7.34 11.6 7 15 C7.66 15 8.32 15 9 15 C9 15.99 9 16.98 9 18 C9.66 18.33 10.32 18.66 11 19 C10.34 19.99 9.68 20.98 9 22 C6.39245084 17.68405657 4.33897915 13.54114044 2.66015625 8.7890625 C1.99519876 6.8762565 1.99519876 6.8762565 0.8125 4.6875 C0 3 0 3 0 0 Z " fill="#52B7EB" transform="translate(84,315)"/>
<path d="M0 0 C1.18736612 3.56209836 0.70533503 4.88231318 -0.3125 8.4375 C-0.57675781 9.38496094 -0.84101563 10.33242188 -1.11328125 11.30859375 C-1.89825573 13.6911815 -2.80830058 15.79873863 -4 18 C-4.66 18 -5.32 18 -6 18 C-6 19.65 -6 21.3 -6 23 C-6.66 23 -7.32 23 -8 23 C-8 23.66 -8 24.32 -8 25 C-8.99 25.33 -9.98 25.66 -11 26 C-9.69826631 21.80206457 -8.09260996 18.01991835 -6.0625 14.125 C-3.69747303 9.48746545 -1.70172899 4.91610598 0 0 Z " fill="#52B7E8" transform="translate(385,298)"/>
<path d="M0 0 C0.6484375 1.77734375 0.6484375 1.77734375 1 4 C0.0390625 5.81640625 0.0390625 5.81640625 -1.375 7.5625 C-3.19394974 9.84380847 -4.05350883 11.16052648 -5 14 C-5.66 14 -6.32 14 -7 14 C-7.04125 14.61875 -7.0825 15.2375 -7.125 15.875 C-7.41375 16.57625 -7.7025 17.2775 -8 18 C-11.0625 19.25 -11.0625 19.25 -14 20 C-13.48953125 19.34257812 -13.48953125 19.34257812 -12.96875 18.671875 C-8.35702949 12.63738965 -4.16766281 6.34669464 0 0 Z " fill="#54B2E9" transform="translate(372,325)"/>
<path d="M0 0 C1.8282413 2.74236196 3.10466668 5.31051093 4.4375 8.3125 C5.83572527 11.44917153 7.25008511 14.53731283 8.875 17.5625 C9.431875 18.7690625 9.431875 18.7690625 10 20 C9.67 20.66 9.34 21.32 9 22 C5.0056704 19.58462548 3.86115069 16.99881991 2.25 12.6875 C1.82203125 11.57761719 1.3940625 10.46773438 0.953125 9.32421875 C0.00870137 6.03034782 -0.18539249 3.40401207 0 0 Z " fill="#5ABBE8" transform="translate(116,300)"/>
<path d="M0 0 C0 0.66 0 1.32 0 2 C-0.66 2 -1.32 2 -2 2 C-2.33 2.99 -2.66 3.98 -3 5 C-3.99 5 -4.98 5 -6 5 C-6.226875 5.639375 -6.45375 6.27875 -6.6875 6.9375 C-8 9 -8 9 -10.625 9.75 C-11.40875 9.8325 -12.1925 9.915 -13 10 C-13 10.66 -13 11.32 -13 12 C-15.06942576 14.5867822 -16.75728494 15.4409112 -20 16 C-20 15.34 -20 14.68 -20 14 C-17.78581383 12.1084693 -15.56433016 10.32350321 -13.25 8.5625 C-12.61578125 8.07201172 -11.9815625 7.58152344 -11.328125 7.07617188 C-10.10041885 6.12853619 -8.86940832 5.18516245 -7.63476562 4.24658203 C-6.30208534 3.2303536 -4.98463304 2.19418025 -3.671875 1.15234375 C-2 0 -2 0 0 0 Z " fill="#64C0E9" transform="translate(346,147)"/>
<path d="M0 0 C-2.88963836 2.88963836 -6.4192105 3.51761211 -10.25 4.625 C-11.00152344 4.85445313 -11.75304687 5.08390625 -12.52734375 5.3203125 C-16.80374208 6.57412562 -20.49498115 7.27259668 -25 7 C-22.65547166 4.65547166 -21.10275052 4.3073746 -17.9375 3.4375 C-14.6878857 2.7288742 -14.6878857 2.7288742 -12 1 C-7.96497918 0.30163101 -4.09439083 -0.12407245 0 0 Z " fill="#45B2E3" transform="translate(313,418)"/>
<path d="M0 0 C1.45823212 -0.0270043 2.91660675 -0.04639787 4.375 -0.0625 C5.18710937 -0.07410156 5.99921875 -0.08570312 6.8359375 -0.09765625 C9 0 9 0 11 1 C12.53668865 1.22467831 14.07968054 1.40796805 15.625 1.5625 C16.44226563 1.64628906 17.25953125 1.73007813 18.1015625 1.81640625 C18.72804688 1.87699219 19.35453125 1.93757813 20 2 C20 2.66 20 3.32 20 4 C20.66 4.33 21.32 4.66 22 5 C14.55769906 4.45298368 7.31839056 3.45801591 0 2 C0 1.34 0 0.68 0 0 Z " fill="#4FB4E9" transform="translate(266,107)"/>
<path d="M0 0 C-1.26839526 0.50615298 -2.53983102 1.00469099 -3.8125 1.5 C-4.87404297 1.91765625 -4.87404297 1.91765625 -5.95703125 2.34375 C-8 3 -8 3 -11 3 C-11 3.66 -11 4.32 -11 5 C-14.63 5 -18.26 5 -22 5 C-22.33 5.66 -22.66 6.32 -23 7 C-23.66 6.34 -24.32 5.68 -25 5 C-21.58805052 3.96292107 -18.16984355 2.94821392 -14.75 1.9375 C-13.78191406 1.64294922 -12.81382812 1.34839844 -11.81640625 1.04492188 C-10.88183594 0.77099609 -9.94726562 0.49707031 -8.984375 0.21484375 C-8.12553711 -0.04176025 -7.26669922 -0.29836426 -6.38183594 -0.56274414 C-3.86951531 -1.02395429 -2.3940048 -0.81657856 0 0 Z " fill="#62BCE7" transform="translate(217,76)"/>
<path d="M0 0 C1.32 0 2.64 0 4 0 C4 0.66 4 1.32 4 2 C4.66 2 5.32 2 6 2 C6 2.66 6 3.32 6 4 C6.66 4 7.32 4 8 4 C9.48320272 7.83887763 10.22419163 10.06204091 9 14 C7.87162591 12.41906946 6.74743482 10.83515284 5.625 9.25 C4.99851563 8.36828125 4.37203125 7.4865625 3.7265625 6.578125 C2.28519059 4.42585021 1.08501907 2.34539477 0 0 Z " fill="#4BB6ED" transform="translate(171,232)"/>
<path d="M0 0 C1.69193359 3.38386718 0.24788179 7.03184949 -0.4375 10.625 C-0.58509766 11.42679688 -0.73269531 12.22859375 -0.88476562 13.0546875 C-1.2506507 15.03754855 -1.62457121 17.01892377 -2 19 C-3.32 19 -4.64 19 -6 19 C-5.38334341 14.7155214 -4.38816051 10.78563562 -3 6.6875 C-2.649375 5.63949219 -2.29875 4.59148437 -1.9375 3.51171875 C-1 1 -1 1 0 0 Z " fill="#43B0ED" transform="translate(86,179)"/>
<path d="M0 0 C0.73828125 1.55859375 0.73828125 1.55859375 1 4 C-0.17871329 6.49421554 -1.37845878 8.72581354 -2.8125 11.0625 C-3.18181641 11.68705078 -3.55113281 12.31160156 -3.93164062 12.95507812 C-5.55473037 15.68548224 -7.23793606 18.35690409 -9 21 C-9 19.35 -9 17.7 -9 16 C-8.34 16 -7.68 16 -7 16 C-6.855625 15.0925 -6.71125 14.185 -6.5625 13.25 C-6.13590527 10.78523044 -5.64925779 8.41152893 -5 6 C-4.01 6 -3.02 6 -2 6 C-2 4.35 -2 2.7 -2 1 C-1.34 0.67 -0.68 0.34 0 0 Z " fill="#59BCE9" transform="translate(276,304)"/>
<path d="M0 0 C0.99 0 1.98 0 3 0 C1.5080378 5.30475449 -2.08475978 9.25821979 -6 13 C-8.2265625 14.23828125 -8.2265625 14.23828125 -10 15 C-9.67 14.01 -9.34 13.02 -9 12 C-8.34 12 -7.68 12 -7 12 C-7 10.35 -7 8.7 -7 7 C-5.68 7 -4.36 7 -3 7 C-3 5.35 -3 3.7 -3 2 C-2.01 2 -1.02 2 0 2 C0 1.34 0 0.68 0 0 Z " fill="#48B5E7" transform="translate(419,121)"/>
<path d="M0 0 C0.66 0.33 1.32 0.66 2 1 C-1.32307692 5.8 -1.32307692 5.8 -4.75 6.8125 C-5.4925 6.874375 -6.235 6.93625 -7 7 C-7 7.66 -7 8.32 -7 9 C-14.625 11.125 -14.625 11.125 -18 10 C-16.86820312 9.44570313 -15.73640625 8.89140625 -14.5703125 8.3203125 C-13.08843697 7.5887537 -11.60667185 6.85697122 -10.125 6.125 C-9.37863281 5.76019531 -8.63226563 5.39539063 -7.86328125 5.01953125 C-6.79013672 4.48779297 -6.79013672 4.48779297 -5.6953125 3.9453125 C-5.03547363 3.62062988 -4.37563477 3.29594727 -3.69580078 2.96142578 C-1.81965314 1.99724181 -1.81965314 1.99724181 0 0 Z " fill="#4BB3E9" transform="translate(326,371)"/>
<path d="M0 0 C-4.29 4.29 -8.58 8.58 -13 13 C-13.33 11.68 -13.66 10.36 -14 9 C-13.01 9 -12.02 9 -11 9 C-10.67 7.68 -10.34 6.36 -10 5 C-9.01 5 -8.02 5 -7 5 C-7 3.35 -7 1.7 -7 0 C-3.98968256 -0.93423645 -3.13349732 -1.04449911 0 0 Z " fill="#55BBE9" transform="translate(407,139)"/>
<path d="M0 0 C-2.22791998 1.12752649 -4.45725887 2.25208139 -6.6875 3.375 C-7.31333984 3.69210937 -7.93917969 4.00921875 -8.58398438 4.3359375 C-15.89353784 8.00984919 -15.89353784 8.00984919 -19 9 C-19.99 8.67 -20.98 8.34 -22 8 C-20.2984375 7.38125 -20.2984375 7.38125 -18.5625 6.75 C-14.90456616 5.43314602 -14.90456616 5.43314602 -14.0625 2.8125 C-14.041875 2.214375 -14.02125 1.61625 -14 1 C-11.69 1.33 -9.38 1.66 -7 2 C-7 1.34 -7 0.68 -7 0 C-2.25 -1.125 -2.25 -1.125 0 0 Z " fill="#55BAEB" transform="translate(335,409)"/>
<path d="M0 0 C7.75 -0.125 7.75 -0.125 10 1 C10 1.66 10 2.32 10 3 C12.31 3 14.62 3 17 3 C17 3.66 17 4.32 17 5 C18.32 5.66 19.64 6.32 21 7 C19 8 19 8 16.171875 7.07421875 C15.04265625 6.61660156 13.9134375 6.15898438 12.75 5.6875 C8.53205928 3.99157683 4.32717322 2.39649681 0 1 C0 0.67 0 0.34 0 0 Z " fill="#5BB8E7" transform="translate(288,112)"/>
<path d="M0 0 C0.66 0.33 1.32 0.66 2 1 C2.9702889 3.91086669 3.16467847 5.90223685 3.1875 8.9375 C3.20167969 9.79214844 3.21585937 10.64679688 3.23046875 11.52734375 C2.98703556 14.13909303 2.3178268 15.75500652 1 18 C0.33333333 16 -0.33333333 14 -1 12 C-1.65129797 10.65909241 -2.31513275 9.32407669 -3 8 C-2.01 7.67 -1.02 7.34 0 7 C0 4.69 0 2.38 0 0 Z " fill="#45B0EA" transform="translate(422,103)"/>
<path d="M0 0 C5.65932676 1.80442302 11.16627032 3.82499631 16.640625 6.1328125 C19.07955002 7.02923858 21.44336838 7.55576259 24 8 C24 8.33 24 8.66 24 9 C18.24662415 9.35958599 14.24698465 8.29675702 9 6 C8.17242187 5.64035156 7.34484375 5.28070313 6.4921875 4.91015625 C4.32145302 3.9540804 2.1581241 2.98414456 0 2 C0 1.34 0 0.68 0 0 Z " fill="#5FBBE7" transform="translate(189,380)"/>
<path d="M0 0 C0.99 0.33 1.98 0.66 3 1 C3 1.66 3 2.32 3 3 C3.94875 3.20625 4.8975 3.4125 5.875 3.625 C9 5 9 5 10.3125 7.9375 C10.6528125 9.4534375 10.6528125 9.4534375 11 11 C11.33 11.99 11.66 12.98 12 14 C8.09833188 12.69944396 6.88146243 10.74371113 4.3125 7.5625 C3.10013672 6.07943359 3.10013672 6.07943359 1.86328125 4.56640625 C0 2 0 2 0 0 Z " fill="#39B0E8" transform="translate(107,357)"/>
<path d="M0 0 C1.66015381 1.42298898 3.31975301 2.84655259 4.9765625 4.2734375 C6.31528821 5.41574785 7.6642017 6.54623537 9.0234375 7.6640625 C9.65507812 8.18742188 10.28671875 8.71078125 10.9375 9.25 C11.52402344 9.72953125 12.11054688 10.2090625 12.71484375 10.703125 C14 12 14 12 14 14 C8.25 12.125 8.25 12.125 6 11 C6 10.01 6 9.02 6 8 C5.34 8 4.68 8 4 8 C4 7.01 4 6.02 4 5 C2.68 4.67 1.36 4.34 0 4 C0 2.68 0 1.36 0 0 Z " fill="#54BDED" transform="translate(233,233)"/>
<path d="M0 0 C0.33 0 0.66 0 1 0 C1 1.65 1 3.3 1 5 C0.34 5 -0.32 5 -1 5 C-1.0825 5.70125 -1.165 6.4025 -1.25 7.125 C-2.17138864 10.65698979 -3.92645814 13.01928357 -6 16 C-6.33 16.99 -6.66 17.98 -7 19 C-7.66 19 -8.32 19 -9 19 C-7.07659354 12.01499761 -4.15127876 5.95348061 0 0 Z " fill="#53B9E8" transform="translate(96,160)"/>
<path d="M0 0 C1.98 0.66 3.96 1.32 6 2 C6.33 3.65 6.66 5.3 7 7 C7.99 7.33 8.98 7.66 10 8 C11.1875 11.5625 11.1875 11.5625 12 15 C7.47619711 10.75036698 3.61682339 6.04479113 0 1 C0 0.67 0 0.34 0 0 Z " fill="#66C3EB" transform="translate(159,217)"/>
<path d="M0 0 C0.66 0.66 1.32 1.32 2 2 C0.23454414 4.29599183 -1.53700951 6.58678905 -3.3125 8.875 C-3.81201172 9.52597656 -4.31152344 10.17695313 -4.82617188 10.84765625 C-5.31279297 11.47285156 -5.79941406 12.09804687 -6.30078125 12.7421875 C-6.96847534 13.60626221 -6.96847534 13.60626221 -7.6496582 14.48779297 C-9 16 -9 16 -12 18 C-11.67 16.35 -11.34 14.7 -11 13 C-10.01 13 -9.02 13 -8 13 C-8 12.01 -8 11.02 -8 10 C-7.34 10 -6.68 10 -6 10 C-5.814375 9.1028125 -5.814375 9.1028125 -5.625 8.1875 C-5 6 -5 6 -3 3 C-2.34 3 -1.68 3 -1 3 C-0.67 2.01 -0.34 1.02 0 0 Z " fill="#54B8E6" transform="translate(338,211)"/>
<path d="M0 0 C3.65353155 1.43643121 4.93978166 3.05835031 6.75 6.5 C7.17796875 7.2940625 7.6059375 8.088125 8.046875 8.90625 C9 11 9 11 9 13 C8.34 13 7.68 13 7 13 C7 12.01 7 11.02 7 10 C6.34 10 5.68 10 5 10 C3.375 8.6875 3.375 8.6875 2 7 C2 6.01 2 5.02 2 4 C0.02 4.33 -1.96 4.66 -4 5 C-2.68 3.35 -1.36 1.7 0 0 Z " fill="#57B9E6" transform="translate(401,157)"/>
<path d="M0 0 C8.08176138 0.48929244 16.75729014 1.30013448 23 7 C14.89654389 6.50387003 7.59474067 3.679915 0 1 C0 0.67 0 0.34 0 0 Z " fill="#67BFE5" transform="translate(188,418)"/>
<path d="M0 0 C1.32 0.66 2.64 1.32 4 2 C1.89812468 3.31629567 -0.20631676 4.62812997 -2.3125 5.9375 C-3.20485352 6.49727539 -3.20485352 6.49727539 -4.11523438 7.06835938 C-6.72747744 8.68824194 -9.07221173 10.02407058 -12 11 C-11.375 9.125 -11.375 9.125 -10 7 C-6.875 5.75 -6.875 5.75 -4 5 C-4 4.34 -4 3.68 -4 3 C-3.01 2.67 -2.02 2.34 -1 2 C-0.67 1.34 -0.34 0.68 0 0 Z " fill="#72C2EB" transform="translate(348,397)"/>
<path d="M0 0 C0.66 0 1.32 0 2 0 C2 0.99 2 1.98 2 3 C2.66 3 3.32 3 4 3 C4.86343824 5.12124966 5.71550648 7.24713072 6.5625 9.375 C7.27599609 11.15003906 7.27599609 11.15003906 8.00390625 12.9609375 C9 16 9 16 8 18 C6.6589995 15.5664433 5.32705144 13.12864699 4 10.6875 C3.6184375 9.99720703 3.236875 9.30691406 2.84375 8.59570312 C0 3.33984375 0 3.33984375 0 0 Z " fill="#65C0EA" transform="translate(214,304)"/>
<path d="M0 0 C2.82227644 2.82227644 3.49645494 6.20739613 4.625 9.9375 C4.85445313 10.66646484 5.08390625 11.39542969 5.3203125 12.14648438 C6.25868208 15.19339276 7 17.79398214 7 21 C6.34 21 5.68 21 5 21 C4.15520547 18.62854106 3.32406717 16.25365876 2.5 13.875 C2.14228516 12.87726563 2.14228516 12.87726563 1.77734375 11.859375 C0.37291194 7.76645945 -0.27343814 4.38868208 0 0 Z " fill="#5FBCE5" transform="translate(417,186)"/>
<path d="M0 0 C1.32 0.33 2.64 0.66 4 1 C0.37 4.63 -3.26 8.26 -7 12 C-8.24546405 9.50907189 -7.7767578 8.58919267 -7 6 C-5.35 5.67 -3.7 5.34 -2 5 C-2 4.34 -2 3.68 -2 3 C-2.66 2.67 -3.32 2.34 -4 2 C-2.68 2 -1.36 2 0 2 C0 1.34 0 0.68 0 0 Z " fill="#55BBF0" transform="translate(151,144)"/>
<path d="M0 0 C0 0.99 0 1.98 0 3 C-0.66 3 -1.32 3 -2 3 C-2 3.66 -2 4.32 -2 5 C-3.65 5.33 -5.3 5.66 -7 6 C-7.33 4.02 -7.66 2.04 -8 0 C-4.71023192 -1.09658936 -3.28696233 -0.79953138 0 0 Z " fill="#37AAEA" transform="translate(368,115)"/>
<path d="M0 0 C0.66 0.33 1.32 0.66 2 1 C-1.06088491 4.99245858 -4.07600991 5.79366651 -8.78125 6.80078125 C-11.11804444 7.01059906 -12.77623861 6.70250644 -15 6 C-13.06305322 5.18618205 -11.12542289 4.37399084 -9.1875 3.5625 C-8.10855469 3.11003906 -7.02960938 2.65757813 -5.91796875 2.19140625 C-3.9704874 1.39624987 -1.99561057 0.66520352 0 0 Z " fill="#4DB5E8" transform="translate(190,82)"/>
<path d="M0 0 C1.91914553 0.93241504 3.83522386 1.87114475 5.75 2.8125 C6.81734375 3.33457031 7.8846875 3.85664063 8.984375 4.39453125 C11.55233242 5.7616692 13.74470783 7.17715463 16 9 C11.428721 8.45144652 7.32564205 7.58255197 3 6 C3 5.01 3 4.02 3 3 C2.01 2.67 1.02 2.34 0 2 C0 1.34 0 0.68 0 0 Z " fill="#57B6E8" transform="translate(173,371)"/>
<path d="M0 0 C0.33 0.66 0.66 1.32 1 2 C0.22265625 3.9453125 0.22265625 3.9453125 -0.9375 6.125 C-1.31777344 6.84945312 -1.69804687 7.57390625 -2.08984375 8.3203125 C-2.54037109 9.15175781 -2.54037109 9.15175781 -3 10 C-3.99 10 -4.98 10 -6 10 C-6 10.66 -6 11.32 -6 12 C-7.32 12.33 -8.64 12.66 -10 13 C-7.02480663 8.30834891 -3.68606635 4.15296809 0 0 Z " fill="#45B5EB" transform="translate(274,210)"/>
<path d="M0 0 C1.65 0.33 3.3 0.66 5 1 C4.06725891 2.12894876 3.12859878 3.25300876 2.1875 4.375 C1.66542969 5.00148437 1.14335937 5.62796875 0.60546875 6.2734375 C-1 8 -1 8 -4 10 C-4 8.68 -4 7.36 -4 6 C-3.34 6 -2.68 6 -2 6 C-2 5.01 -2 4.02 -2 3 C-1.34 3 -0.68 3 0 3 C0 2.01 0 1.02 0 0 Z " fill="#48B6EB" transform="translate(388,151)"/>
<path d="M0 0 C0.66 0.33 1.32 0.66 2 1 C0.71284028 2.64936048 -0.57987019 4.29439047 -1.875 5.9375 C-2.95394531 7.31228516 -2.95394531 7.31228516 -4.0546875 8.71484375 C-6 11 -6 11 -8 12 C-8 10.35 -8 8.7 -8 7 C-7.01 6.67 -6.02 6.34 -5 6 C-4.26676204 3.98491642 -4.26676204 3.98491642 -4 2 C-2.68 2 -1.36 2 0 2 C0 1.34 0 0.68 0 0 Z " fill="#51BAEB" transform="translate(388,362)"/>
<path d="M0 0 C0.33 0 0.66 0 1 0 C0.60146354 6.58272295 -0.13239159 12.97665028 -3 19 C-3.66 19.33 -4.32 19.66 -5 20 C-4.50475027 15.24560258 -3.46768979 11.30130514 -1.69921875 6.8671875 C-0.85569824 4.61465787 -0.37087444 2.3735964 0 0 Z " fill="#4CB3E8" transform="translate(426,278)"/>
<path d="M0 0 C3.62276315 1.3255581 6.63505348 2.94346955 9.8125 5.125 C10.60269531 5.66382812 11.39289063 6.20265625 12.20703125 6.7578125 C12.79871094 7.16773437 13.39039063 7.57765625 14 8 C12.09765625 8.5859375 12.09765625 8.5859375 10 9 C8.4375 7.625 8.4375 7.625 7 6 C6.01 5.67 5.02 5.34 4 5 C4 4.34 4 3.68 4 3 C3.01 3 2.02 3 1 3 C0.67 2.01 0.34 1.02 0 0 Z " fill="#6BC3EA" transform="translate(335,93)"/>
<path d="M0 0 C0.33 0 0.66 0 1 0 C2.33333333 5.33333333 3.66666667 10.66666667 5 16 C4.01 16.33 3.02 16.66 2 17 C-0.56287828 4.40954943 -0.56287828 4.40954943 -1 1 C-0.67 0.67 -0.34 0.34 0 0 Z " fill="#57BBE7" transform="translate(111,283)"/>
<path d="M0 0 C0.66 0.33 1.32 0.66 2 1 C1.8125 2.875 1.8125 2.875 1 5 C-0.65204456 5.70211894 -2.31923769 6.36971413 -4 7 C-4.33 7.99 -4.66 8.98 -5 10 C-7.5625 11.6875 -7.5625 11.6875 -10 13 C-8.4373676 9.16444775 -5.93550032 6.86390275 -3 4 C-1.97186389 2.68824014 -0.95915568 1.3630107 0 0 Z " fill="#67C1EF" transform="translate(389,169)"/>
<path d="M0 0 C0.99 0.33 1.98 0.66 3 1 C-0.86795445 6.24936675 -3.63205883 7.93867647 -10 9 C-9.67 8.34 -9.34 7.68 -9 7 C-8.34 7 -7.68 7 -7 7 C-7 6.34 -7 5.68 -7 5 C-6.030625 4.54625 -5.06125 4.0925 -4.0625 3.625 C-0.92920418 2.34213779 -0.92920418 2.34213779 0 0 Z " fill="#0BA2F4" transform="translate(340,152)"/>
<path d="M0 0 C0.33 0.66 0.66 1.32 1 2 C-0.46615298 5.77010767 -2.13404221 9.41161963 -4 13 C-4.99 13 -5.98 13 -7 13 C-5.58832253 7.73829306 -3.25149768 4.27828642 0 0 Z " fill="#57B9E6" transform="translate(104,147)"/>
<path d="M0 0 C3.08779026 1.46599217 5.90467205 3.17026393 8.75 5.0625 C9.94882813 5.85333984 9.94882813 5.85333984 11.171875 6.66015625 C12.07679688 7.32337891 12.07679688 7.32337891 13 8 C13 8.33 13 8.66 13 9 C10.20583606 9.50802981 8.52646274 9.34912792 6.14453125 7.76953125 C1.21875 3.65625 1.21875 3.65625 0 0 Z " fill="#5DBBE8" transform="translate(160,362)"/>
<path d="M0 0 C0.66 0.33 1.32 0.66 2 1 C0.88096454 2.81618856 -0.24541284 4.62785526 -1.375 6.4375 C-2.00148438 7.44683594 -2.62796875 8.45617187 -3.2734375 9.49609375 C-5 12 -5 12 -7 13 C-7 11.35 -7 9.7 -7 8 C-6.01 7.67 -5.02 7.34 -4 7 C-4 6.34 -4 5.68 -4 5 C-3.34 5 -2.68 5 -2 5 C-1.855625 4.360625 -1.71125 3.72125 -1.5625 3.0625 C-1 1 -1 1 0 0 Z " fill="#66C1E9" transform="translate(313,245)"/>
<path d="M0 0 C0.66 0.33 1.32 0.66 2 1 C0.40320196 2.3421492 -1.20270197 3.67347115 -2.8125 5 C-4.15248047 6.11375 -4.15248047 6.11375 -5.51953125 7.25 C-8 9 -8 9 -11 9 C-11 8.01 -11 7.02 -11 6 C-9.68 6 -8.36 6 -7 6 C-7 5.34 -7 4.68 -7 4 C-5.35 3.67 -3.7 3.34 -2 3 C-2 2.34 -2 1.68 -2 1 C-1.34 0.67 -0.68 0.34 0 0 Z " fill="#67BDE5" transform="translate(360,121)"/>
<path d="M0 0 C0.66 0.99 1.32 1.98 2 3 C1.195625 3.45375 0.39125 3.9075 -0.4375 4.375 C-3.08856572 5.74725665 -3.08856572 5.74725665 -4 8 C-6.32156597 8.40729228 -8.6568787 8.74438677 -11 9 C-9.60804085 6.2160817 -7.84424221 6.02101003 -5 5 C-5 4.34 -5 3.68 -5 3 C-2.5 1.375 -2.5 1.375 0 0 Z " fill="#11A0EF" transform="translate(340,400)"/>
<path d="M0 0 C-1.65848177 1.01351664 -3.32665961 2.01120795 -5 3 C-5.639375 3.391875 -6.27875 3.78375 -6.9375 4.1875 C-9.68216726 5.26873256 -12.07991171 5.13273129 -15 5 C-12.62383533 2.62383533 -10.64650479 1.95931819 -7.5 0.8125 C-6.5203125 0.44769531 -5.540625 0.08289063 -4.53125 -0.29296875 C-2 -1 -2 -1 0 0 Z " fill="#66BEE9" transform="translate(308,383)"/>
<path d="M0 0 C0.99 0.33 1.98 0.66 3 1 C0.525 5.455 0.525 5.455 -2 10 C-2.66 10 -3.32 10 -4 10 C-4 8.35 -4 6.7 -4 5 C-3.34 5 -2.68 5 -2 5 C-1.34 3.35 -0.68 1.7 0 0 Z " fill="#60BFEA" transform="translate(281,294)"/>
<path d="M0 0 C0.33 0 0.66 0 1 0 C1.06058594 0.69867188 1.12117188 1.39734375 1.18359375 2.1171875 C1.26738281 3.02726562 1.35117188 3.93734375 1.4375 4.875 C1.51871094 5.77992188 1.59992188 6.68484375 1.68359375 7.6171875 C1.86989285 10.01110861 1.86989285 10.01110861 3 12 C3.13415472 14.6723621 3.04318541 17.32250488 3 20 C-0.05675241 15.41487138 -0.11219208 12.22893676 -0.0625 6.8125 C-0.05347656 5.54019531 -0.04445313 4.26789063 -0.03515625 2.95703125 C-0.02355469 1.98121094 -0.01195313 1.00539063 0 0 Z " fill="#3FB2EB" transform="translate(76,279)"/>
<path d="M0 0 C1.15224028 0.92961422 2.29659176 1.8690125 3.4375 2.8125 C4.07558594 3.33457031 4.71367187 3.85664063 5.37109375 4.39453125 C7 6 7 6 8 9 C6.68 9 5.36 9 4 9 C4 8.01 4 7.02 4 6 C3.38125 5.690625 2.7625 5.38125 2.125 5.0625 C0.75 4.375 -0.625 3.6875 -2 3 C-1 1 -1 1 0 0 Z " fill="#49B7E8" transform="translate(225,224)"/>
<path d="M0 0 C0.99 0.33 1.98 0.66 3 1 C0.03 4.3 -2.94 7.6 -6 11 C-6.33 10.01 -6.66 9.02 -7 8 C-6.525625 7.566875 -6.05125 7.13375 -5.5625 6.6875 C-3.76313043 4.97690387 -3.76313043 4.97690387 -3 2 C-2.01 1.34 -1.02 0.68 0 0 Z " fill="#61BCEB" transform="translate(364,180)"/>
<path d="M0 0 C6.5508985 0.45759953 12.6753842 1.2100144 19 3 C19 3.33 19 3.66 19 4 C12.35590042 4.21432579 6.46794133 3.51233701 0 2 C0 1.34 0 0.68 0 0 Z " fill="#3DAEE6" transform="translate(288,77)"/>
<path d="M0 0 C1.65 0 3.3 0 5 0 C4 3 4 3 0.8125 4.625 C-2.41184969 5.89741899 -5.55120353 6.57941506 -9 7 C-9 6.34 -9 5.68 -9 5 C-8.43410156 4.80664062 -7.86820312 4.61328125 -7.28515625 4.4140625 C-6.55167969 4.15367187 -5.81820313 3.89328125 -5.0625 3.625 C-3.96615234 3.24214844 -3.96615234 3.24214844 -2.84765625 2.8515625 C-0.81317884 2.14728587 -0.81317884 2.14728587 0 0 Z " fill="#119DEA" transform="translate(316,412)"/>
<path d="M0 0 C1.65 0 3.3 0 5 0 C4.04882866 1.1725131 3.08882991 2.33787015 2.125 3.5 C1.59132813 4.1496875 1.05765625 4.799375 0.5078125 5.46875 C0.01023437 5.9740625 -0.48734375 6.479375 -1 7 C-1.66 7 -2.32 7 -3 7 C-3.33 5.68 -3.66 4.36 -4 3 C-3.01 2.67 -2.02 2.34 -1 2 C-0.67 1.34 -0.34 0.68 0 0 Z " fill="#48B4EB" transform="translate(372,377)"/>
<path d="M0 0 C2 0 2 0 4.5 2.25 C6.56954228 4.5264965 7.85749293 6.19566446 9 9 C9.66 9 10.32 9 11 9 C11.66 10.32 12.32 11.64 13 13 C12.01 12.67 11.02 12.34 10 12 C10 11.34 10 10.68 10 10 C9.40703125 9.74347656 8.8140625 9.48695313 8.203125 9.22265625 C5.80550123 7.89206008 4.48912672 6.54114065 2.75 4.4375 C1.96882813 3.50744141 1.96882813 3.50744141 1.171875 2.55859375 C0 1 0 1 0 0 Z " fill="#6EC7E9" transform="translate(119,371)"/>
<path d="M0 0 C0.66 0.33 1.32 0.66 2 1 C0.34059686 4.50318441 -0.42215244 5.78041793 -4.125 7.1875 C-5.07375 7.455625 -6.0225 7.72375 -7 8 C-7.33 8.66 -7.66 9.32 -8 10 C-9.32 9.67 -10.64 9.34 -12 9 C-11.30132812 8.51789063 -10.60265625 8.03578125 -9.8828125 7.5390625 C-8.97273438 6.90742188 -8.06265625 6.27578125 -7.125 5.625 C-6.22007812 4.99851562 -5.31515625 4.37203125 -4.3828125 3.7265625 C-1.96505875 2.0701905 -1.96505875 2.0701905 0 0 Z " fill="#75C5EB" transform="translate(340,361)"/>
<path d="M0 0 C3.7952131 1.49097658 5.61042731 3.75700849 8 7 C5 8 5 8 2.3125 6.875 C0 5 0 5 -0.3125 2.3125 C-0.209375 1.549375 -0.10625 0.78625 0 0 Z " fill="#4AB6F0" transform="translate(148,351)"/>
<path d="M0 0 C1 3 1 3 -0.4375 6.1875 C-1.2109375 7.5796875 -1.2109375 7.5796875 -2 9 C-3.32 8.67 -4.64 8.34 -6 8 C-6 8.66 -6 9.32 -6 10 C-6.66 10 -7.32 10 -8 10 C-7.6875 8.125 -7.6875 8.125 -7 6 C-4 4 -4 4 -1 4 C-0.67 2.68 -0.34 1.36 0 0 Z " fill="#12A0EE" transform="translate(282,204)"/>
<path d="M0 0 C2.34211663 2.89399469 3.86862171 5.67155428 5.25 9.125 C5.60578125 9.99382812 5.9615625 10.86265625 6.328125 11.7578125 C7 14 7 14 6 16 C1.5467553 11.10143083 0 6.60452917 0 0 Z " fill="#5FBAE5" transform="translate(410,170)"/>
<path d="M0 0 C1.32 0.66 2.64 1.32 4 2 C1.03 4.31 -1.94 6.62 -5 9 C-5.33 8.01 -5.66 7.02 -6 6 C-5.01 6 -4.02 6 -3 6 C-3.33 5.01 -3.66 4.02 -4 3 C-3.01 2.67 -2.02 2.34 -1 2 C-0.67 1.34 -0.34 0.68 0 0 Z " fill="#5BBDEB" transform="translate(161,135)"/>
<path d="M0 0 C0.33 0.66 0.66 1.32 1 2 C0.06553465 4.03144641 -0.93224776 6.03533587 -2 8 C-2.66 7.67 -3.32 7.34 -4 7 C-6.60931266 7.89363605 -6.60931266 7.89363605 -9 9 C-7.625 7 -7.625 7 -6 5 C-5.34 5 -4.68 5 -4 5 C-3.67 4.01 -3.34 3.02 -3 2 C-2.01 1.34 -1.02 0.68 0 0 Z " fill="#52BAEB" transform="translate(138,111)"/>
<path d="M0 0 C1.48285242 0.95262034 2.96118201 1.91228405 4.4375 2.875 C5.67306641 3.67550781 5.67306641 3.67550781 6.93359375 4.4921875 C9 6 9 6 10 8 C4.5388601 7.11917098 4.5388601 7.11917098 2 6 C0.5 2.875 0.5 2.875 0 0 Z " fill="#61C3EF" transform="translate(357,107)"/>
<path d="M0 0 C0.66 0.33 1.32 0.66 2 1 C-0.27301934 3.54344286 -2.45086481 4.87616437 -5.5625 6.25 C-6.74005859 6.78367187 -6.74005859 6.78367187 -7.94140625 7.328125 C-10 8 -10 8 -12 7 C-10.04754815 5.80285445 -8.08785003 4.61751926 -6.125 3.4375 C-5.03445312 2.77621094 -3.94390625 2.11492187 -2.8203125 1.43359375 C-1.88960937 0.96050781 -0.95890625 0.48742187 0 0 Z " fill="#68C5EB" transform="translate(172,89)"/>
<path d="M0 0 C0.99 0 1.98 0 3 0 C3 0.66 3 1.32 3 2 C-0.19026533 4.32019297 -3.41726669 6.34643078 -7 8 C-7.33 6.68 -7.66 5.36 -8 4 C-5.09399739 2.74335022 -3.20395416 2 0 2 C0 1.34 0 0.68 0 0 Z " fill="#5DBBE5" transform="translate(359,390)"/>
<path d="M0 0 C0.33 0.66 0.66 1.32 1 2 C-0.93254772 4.0245738 -2.63158688 5.42105792 -5 7 C-6.19232613 9.05003955 -6.19232613 9.05003955 -7 11 C-8.32 10.67 -9.64 10.34 -11 10 C-10.38125 9.7525 -9.7625 9.505 -9.125 9.25 C-6.88261155 8.19037241 -6.88261155 8.19037241 -6.0625 6.125 C-4.63101256 3.26202511 -2.54558673 1.87569549 0 0 Z " fill="#7BC9EC" transform="translate(310,175)"/>
<path d="M0 0 C-0.99 0.33 -1.98 0.66 -3 1 C-3.28875 1.639375 -3.5775 2.27875 -3.875 2.9375 C-5.39098648 5.71680854 -7.05867273 6.07115981 -10 7 C-7.67908903 1.38095238 -7.67908903 1.38095238 -4.4375 -0.4375 C-2 -1 -2 -1 0 0 Z " fill="#37AAE7" transform="translate(379,125)"/>
<path d="M0 0 C1.0625 1.8125 1.0625 1.8125 2 4 C1.67 4.99 1.34 5.98 1 7 C-1.475 6.01 -1.475 6.01 -4 5 C-4 5.66 -4 6.32 -4 7 C-5.65 7.33 -7.3 7.66 -9 8 C-6.17493137 5.0702992 -3.21203935 2.49825283 0 0 Z " fill="#55BCEB" transform="translate(148,103)"/>
<path d="M0 0 C0.33 1.32 0.66 2.64 1 4 C-1.29629994 5.14814997 -3.07698086 5.30769809 -5.625 5.5625 C-6.85089844 5.68818359 -6.85089844 5.68818359 -8.1015625 5.81640625 C-9.04128906 5.90728516 -9.04128906 5.90728516 -10 6 C-4.4 0 -4.4 0 0 0 Z " fill="#50B8E9" transform="translate(160,97)"/>
<path d="M0 0 C0.99 0.495 0.99 0.495 2 1 C2 1.66 2 2.32 2 3 C2.66 3 3.32 3 4 3 C4.33 5.97 4.66 8.94 5 12 C1.75254486 7.86687528 0 5.36067372 0 0 Z " fill="#53BAEC" transform="translate(223,322)"/>
<path d="M0 0 C6.52307692 0.49230769 6.52307692 0.49230769 8.9375 3.0625 C9.288125 3.701875 9.63875 4.34125 10 5 C9.34 5 8.68 5 8 5 C7.67 5.66 7.34 6.32 7 7 C7 5.68 7 4.36 7 3 C5.02 3.33 3.04 3.66 1 4 C0.67 2.68 0.34 1.36 0 0 Z " fill="#2CADF1" transform="translate(213,218)"/>
<path d="M0 0 C0.99 0.33 1.98 0.66 3 1 C3 1.66 3 2.32 3 3 C5.31 3 7.62 3 10 3 C9.01 4.485 9.01 4.485 8 6 C3.68607774 5.5206753 1.83430453 4.2542015 -1 1 C-0.67 0.67 -0.34 0.34 0 0 Z " fill="#5FBCE7" transform="translate(333,132)"/>
<path d="M0 0 C1.258125 -0.020625 2.51625 -0.04125 3.8125 -0.0625 C4.52019531 -0.07410156 5.22789062 -0.08570313 5.95703125 -0.09765625 C8 0 8 0 11 1 C11 1.66 11 2.32 11 3 C3.57142857 3.28571429 3.57142857 3.28571429 0 1 C0 0.67 0 0.34 0 0 Z " fill="#36A8E0" transform="translate(238,343)"/>
<path d="M0 0 C0.66 0 1.32 0 2 0 C2.33 3.96 2.66 7.92 3 12 C2.34 12 1.68 12 1 12 C-0.26237731 9.47524538 -0.09856404 7.68799534 -0.0625 4.875 C-0.05347656 3.96492187 -0.04445313 3.05484375 -0.03515625 2.1171875 C-0.02355469 1.41851562 -0.01195313 0.71984375 0 0 Z " fill="#179CE0" transform="translate(73,231)"/>
<path d="M0 0 C2.0625 0.4375 2.0625 0.4375 4 1 C4 2.32 4 3.64 4 5 C3.34 5 2.68 5 2 5 C1.34 6.65 0.68 8.3 0 10 C-0.33 10 -0.66 10 -1 10 C-1 8.35 -1 6.7 -1 5 C-0.34 5 0.32 5 1 5 C1 4.01 1 3.02 1 2 C0.34 1.67 -0.32 1.34 -1 1 C-0.67 0.67 -0.34 0.34 0 0 Z " fill="#48B4EE" transform="translate(322,227)"/>
<path d="M0 0 C1.48280196 0.78483659 2.9611498 1.57809334 4.4375 2.375 C5.67306641 3.03628906 5.67306641 3.03628906 6.93359375 3.7109375 C9 5 9 5 10 7 C7.69 6.67 5.38 6.34 3 6 C3 5.34 3 4.68 3 4 C2.34 4 1.68 4 1 4 C0.67 2.68 0.34 1.36 0 0 Z " fill="#5ABDEC" transform="translate(195,201)"/>
<path d="M0 0 C0 0.66 0 1.32 0 2 C-3.99000166 3.42500059 -7.80530429 4.40075776 -12 5 C-8.00903919 0.58143625 -5.8802583 0 0 0 Z " fill="#38ADEF" transform="translate(408,106)"/>
<path d="M0 0 C0.75 1.625 0.75 1.625 1 4 C-0.9375 7.25 -0.9375 7.25 -3 10 C-4.0625 8.1875 -4.0625 8.1875 -5 6 C-4.67 5.01 -4.34 4.02 -4 3 C-1.9375 2.3125 -1.9375 2.3125 0 2 C0 1.34 0 0.68 0 0 Z " fill="#16A1EE" transform="translate(377,321)"/>
<path d="M0 0 C3 1 3 1 3.984375 2.7421875 C4.23703125 3.44601562 4.4896875 4.14984375 4.75 4.875 C5.01296875 5.57367188 5.2759375 6.27234375 5.546875 6.9921875 C6 9 6 9 5 12 C4.16180842 10.37750059 3.3295884 8.75191503 2.5 7.125 C2.0359375 6.22007812 1.571875 5.31515625 1.09375 4.3828125 C0 2 0 2 0 0 Z " fill="#6AC4E7" transform="translate(208,292)"/>
<path d="M0 0 C0.66 0 1.32 0 2 0 C1.67 1.32 1.34 2.64 1 4 C0.34 4 -0.32 4 -1 4 C-1.12375 4.639375 -1.2475 5.27875 -1.375 5.9375 C-1.58125 6.618125 -1.7875 7.29875 -2 8 C-2.99 8.495 -2.99 8.495 -4 9 C-4 6.69 -4 4.38 -4 2 C-2.68 2 -1.36 2 0 2 C0 1.34 0 0.68 0 0 Z " fill="#69C1EB" transform="translate(345,202)"/>
<path d="M0 0 C0.33 0.66 0.66 1.32 1 2 C0.34 2.66 -0.32 3.32 -1 4 C-1.39764263 5.98821313 -1.73775349 7.98944339 -2 10 C-2.66 10 -3.32 10 -4 10 C-4 8.35 -4 6.7 -4 5 C-4.66 4.67 -5.32 4.34 -6 4 C-4.02 2.68 -2.04 1.36 0 0 Z " fill="#11A3EE" transform="translate(384,178)"/>
<path d="M0 0 C1.15941038 3.47823115 0.70820884 5.45895578 0 9 C-0.99 9 -1.98 9 -3 9 C-3.33 10.32 -3.66 11.64 -4 13 C-4.125 7.25 -4.125 7.25 -3 5 C-2.34 5 -1.68 5 -1 5 C-0.67 3.35 -0.34 1.7 0 0 Z " fill="#129FE6" transform="translate(90,174)"/>
<path d="M0 0 C0.66 0.33 1.32 0.66 2 1 C-0.31 3.97 -2.62 6.94 -5 10 C-5.33 9.01 -5.66 8.02 -6 7 C-5.34 6.01 -4.68 5.02 -4 4 C-3.34 4 -2.68 4 -2 4 C-2 3.01 -2 2.02 -2 1 C-1.34 0.67 -0.68 0.34 0 0 Z " fill="#6BBFEA" transform="translate(141,156)"/>
<path d="M0 0 C2.8125 -0.25 2.8125 -0.25 6 0 C8.04040776 2.04040776 9 3.08325244 9 6 C8.34 6 7.68 6 7 6 C7 5.34 7 4.68 7 4 C6.030625 3.71125 5.06125 3.4225 4.0625 3.125 C1 2 1 2 0 0 Z " fill="#4CB5E7" transform="translate(323,127)"/>
<path d="M0 0 C0 0.66 0 1.32 0 2 C-6.5 5 -6.5 5 -11 5 C-10.67 4.01 -10.34 3.02 -10 2 C-8.22265625 1.26953125 -8.22265625 1.26953125 -6.0625 0.8125 C-4.99708984 0.57466797 -4.99708984 0.57466797 -3.91015625 0.33203125 C-2 0 -2 0 0 0 Z " fill="#159FEB" transform="translate(184,87)"/>
<path d="M0 0 C2.64 0.33 5.28 0.66 8 1 C8.33 1.99 8.66 2.98 9 4 C9.66 4.66 10.32 5.32 11 6 C6.80639551 5.32902328 3.59665648 3.1441606 0 1 C0 0.67 0 0.34 0 0 Z " fill="#6CC2EF" transform="translate(159,404)"/>
<path d="M0 0 C0.99 0 1.98 0 3 0 C4.76462683 3.08809695 5 4.23312136 5 8 C5.66 8 6.32 8 7 8 C6.67 8.99 6.34 9.98 6 11 C4.9944239 9.54550599 3.99569565 8.08627557 3 6.625 C2.443125 5.81289063 1.88625 5.00078125 1.3125 4.1640625 C0 2 0 2 0 0 Z " fill="#63C2ED" transform="translate(94,337)"/>
<path d="M0 0 C2.31 0.66 4.62 1.32 7 2 C6.67 2.66 6.34 3.32 6 4 C5.34 4 4.68 4 4 4 C4.33 5.98 4.66 7.96 5 10 C2 6.375 2 6.375 2 3 C1.34 3 0.68 3 0 3 C0 2.01 0 1.02 0 0 Z " fill="#08A0F2" transform="translate(216,304)"/>
<path d="M0 0 C2 1 2 1 3.125 3.0625 C4.2583306 6.86725273 4.13434296 10.0368828 4 14 C1.90284215 10.85426323 1.47995441 8.98543749 0.875 5.3125 C0.70742188 4.31863281 0.53984375 3.32476562 0.3671875 2.30078125 C0.24601562 1.54152344 0.12484375 0.78226563 0 0 Z " fill="#5FBDE8" transform="translate(387,207)"/>
<path d="M0 0 C0.33 0 0.66 0 1 0 C1.125 7.75 1.125 7.75 0 10 C-0.66 10 -1.32 10 -2 10 C-2.33 11.32 -2.66 12.64 -3 14 C-2.40380045 9.13103697 -1.43023178 4.67209049 0 0 Z " fill="#75C5EA" transform="translate(79,198)"/>
<path d="M0 0 C1.53224072 2.43355879 2.03344238 3.65721564 1.75 6.5625 C1 9 1 9 -1 12 C-1.02698189 10.37509046 -1.04638757 8.75005367 -1.0625 7.125 C-1.07410156 6.22007812 -1.08570313 5.31515625 -1.09765625 4.3828125 C-1 2 -1 2 0 0 Z " fill="#0AA0F2" transform="translate(156,197)"/>
<path d="M0 0 C0.66 0.33 1.32 0.66 2 1 C-0.64 4.3 -3.28 7.6 -6 11 C-6.99 10.67 -7.98 10.34 -9 10 C-8.2575 9.278125 -7.515 8.55625 -6.75 7.8125 C-4.30709485 5.31407427 -2.1318953 2.76356798 0 0 Z " fill="#38A8E4" transform="translate(297,187)"/>
<path d="M0 0 C0.66 0.33 1.32 0.66 2 1 C1.34 1.66 0.68 2.32 0 3 C-0.16687448 5.58354218 -0.16687448 5.58354218 0 8 C-1.98 8.33 -3.96 8.66 -6 9 C-5.67 8.01 -5.34 7.02 -5 6 C-4.34 6 -3.68 6 -3 6 C-2.690625 5.195625 -2.38125 4.39125 -2.0625 3.5625 C-1 1 -1 1 0 0 Z " fill="#0F9FEB" transform="translate(124,125)"/>
<path d="M0 0 C1.65 0 3.3 0 5 0 C1 6.57142857 1 6.57142857 -3 8 C-2.67 7.01 -2.34 6.02 -2 5 C-1.34 5 -0.68 5 0 5 C0 3.35 0 1.7 0 0 Z " fill="#5ABCE9" transform="translate(412,128)"/>
<path d="M0 0 C0.33 1.32 0.66 2.64 1 4 C0.34 4 -0.32 4 -1 4 C-1.33 4.99 -1.66 5.98 -2 7 C-3.98 7.33 -5.96 7.66 -8 8 C-7.67 7.34 -7.34 6.68 -7 6 C-5.68 6 -4.36 6 -3 6 C-3 4.68 -3 3.36 -3 2 C-2.01 1.34 -1.02 0.68 0 0 Z " fill="#0D9FF1" transform="translate(399,109)"/>
<path d="M0 0 C0 0.99 0 1.98 0 3 C-3 5 -3 5 -7 5 C-7 4.01 -7 3.02 -7 2 C-2.25 0 -2.25 0 0 0 Z " fill="#0EA1EE" transform="translate(167,95)"/>
<path d="M0 0 C1.8871875 0.0309375 1.8871875 0.0309375 3.8125 0.0625 C0.65009418 2.17077055 -0.69407469 2.40067465 -4.375 2.6875 C-5.72658203 2.79964844 -5.72658203 2.79964844 -7.10546875 2.9140625 C-8.13607422 2.98753906 -8.13607422 2.98753906 -9.1875 3.0625 C-6.30623588 0.18123588 -3.90053134 -0.06394314 0 0 Z " fill="#6EBFE6" transform="translate(297.1875,421.9375)"/>
<path d="M0 0 C1 4 1 4 0.00390625 5.703125 C-1.33072917 7.13541667 -2.66536458 8.56770833 -4 10 C-4.66 9.67 -5.32 9.34 -6 9 C-4.02 6.03 -2.04 3.06 0 0 Z " fill="#6DBFE6" transform="translate(372,325)"/>
<path d="M0 0 C0.99 0.99 1.98 1.98 3 3 C1.35830472 5.02054804 -0.30911778 7.02043058 -2 9 C-2.33 9 -2.66 9 -3 9 C-3 7.35 -3 5.7 -3 4 C-2.01 4 -1.02 4 0 4 C0 2.68 0 1.36 0 0 Z " fill="#4CB8EE" transform="translate(354,189)"/>
<path d="M0 0 C1.32 0.33 2.64 0.66 4 1 C1.375 6.75 1.375 6.75 -2 9 C-1.34 6.03 -0.68 3.06 0 0 Z " fill="#4CB9ED" transform="translate(369,171)"/>
<path d="M0 0 C-1.36983503 3.16115776 -1.9890638 3.9927092 -5 6 C-5.66 4.68 -6.32 3.36 -7 2 C-4.35261084 0.5393715 -3.10551666 0 0 0 Z " fill="#61BEEF" transform="translate(384,161)"/>
<path d="M0 0 C7.75 -0.125 7.75 -0.125 10 1 C10 1.99 10 2.98 10 4 C6.7 3.01 3.4 2.02 0 1 C0 0.67 0 0.34 0 0 Z " fill="#52B6ED" transform="translate(288,112)"/>
<path d="M0 0 C0.66 0.33 1.32 0.66 2 1 C0.375 3.5 0.375 3.5 -2 6 C-5.25 6.3125 -5.25 6.3125 -8 6 C-5.33333333 4 -2.66666667 2 0 0 Z " fill="#60BEE7" transform="translate(326,371)"/>
<path d="M0 0 C1.875 0.1875 1.875 0.1875 4 1 C5.3125 3.375 5.3125 3.375 6 6 C5.67 6.99 5.34 7.98 5 9 C0.57142857 3.85714286 0.57142857 3.85714286 0 0 Z " fill="#61BEE9" transform="translate(101,348)"/>
<path d="M0 0 C2.475 0.495 2.475 0.495 5 1 C5.33 1.99 5.66 2.98 6 4 C4.35 4.33 2.7 4.66 1 5 C0.67 3.35 0.34 1.7 0 0 Z " fill="#23A1E6" transform="translate(203,208)"/>
<path d="M0 0 C-0.33 0.99 -0.66 1.98 -1 3 C-1.66 3 -2.32 3 -3 3 C-3.33 3.99 -3.66 4.98 -4 6 C-5.65 6.33 -7.3 6.66 -9 7 C-8.34 6.01 -7.68 5.02 -7 4 C-6.34 4 -5.68 4 -5 4 C-5 3.34 -5 2.68 -5 2 C-2 0 -2 0 0 0 Z " fill="#66C0E9" transform="translate(326,163)"/>
<path d="M0 0 C0.99 0 1.98 0 3 0 C3 3 3 3 1.75 4.75 C0 6 0 6 -2.1875 5.6875 C-2.785625 5.460625 -3.38375 5.23375 -4 5 C-3.34 5 -2.68 5 -2 5 C-1.7834375 4.0409375 -1.7834375 4.0409375 -1.5625 3.0625 C-1 1 -1 1 0 0 Z " fill="#28A6E7" transform="translate(348,144)"/>
<path d="M0 0 C2.95929119 2.75520215 5.03681826 5.46627288 7 9 C6.01 9 5.02 9 4 9 C3.896875 8.360625 3.79375 7.72125 3.6875 7.0625 C3.460625 6.381875 3.23375 5.70125 3 5 C2.01 4.67 1.02 4.34 0 4 C0 2.68 0 1.36 0 0 Z " fill="#71C5EC" transform="translate(132,331)"/>
<path d="M0 0 C0.66 0.33 1.32 0.66 2 1 C1.19152271 2.16945792 0.37810888 3.33550461 -0.4375 4.5 C-0.88996094 5.1496875 -1.34242188 5.799375 -1.80859375 6.46875 C-2.20175781 6.9740625 -2.59492188 7.479375 -3 8 C-3.33 8 -3.66 8 -4 8 C-4.25 5.6875 -4.25 5.6875 -4 3 C-2 1.1875 -2 1.1875 0 0 Z " fill="#09A0F2" transform="translate(287,281)"/>
<path d="M0 0 C2.49361571 1.20381448 4.68143083 2.45428722 7 4 C7 4.66 7 5.32 7 6 C1.25 4.125 1.25 4.125 -1 3 C-0.67 2.01 -0.34 1.02 0 0 Z " fill="#64C4ED" transform="translate(240,241)"/>
<path d="M0 0 C0.33 0.66 0.66 1.32 1 2 C-0.73397418 5.65047197 -2.19333016 7.55609075 -6 9 C-4.68775452 5.06326356 -3.08089673 2.77280706 0 0 Z " fill="#5AB6E3" transform="translate(259,228)"/>
<path d="M0 0 C2.9375 0.75 2.9375 0.75 6 2 C6.875 4.125 6.875 4.125 7 6 C2.32307692 4.52307692 2.32307692 4.52307692 0.6875 1.875 C0.460625 1.25625 0.23375 0.6375 0 0 Z " fill="#43B3E6" transform="translate(159,217)"/>
<path d="M0 0 C3.66881155 0.70554068 6.70450534 2.27735506 10 4 C7 5 7 5 4 5 C4 4.34 4 3.68 4 3 C2.68 2.67 1.36 2.34 0 2 C0 1.34 0 0.68 0 0 Z " fill="#6FC5EC" transform="translate(184,196)"/>
<path d="M0 0 C1 3 1 3 0.375 5.0625 C-1 7 -1 7 -6 9 C-4.02 6.03 -2.04 3.06 0 0 Z " fill="#5AB9E3" transform="translate(111,138)"/>
<path d="M0 0 C5.41538462 -0.36923077 5.41538462 -0.36923077 8.375 1.5 C8.91125 1.995 9.4475 2.49 10 3 C3.47692308 3.36923077 3.47692308 3.36923077 1.0625 1.5 C0.5365625 0.7575 0.5365625 0.7575 0 0 Z " fill="#43ADE6" transform="translate(182,415)"/>
<path d="M0 0 C0.33 0.99 0.66 1.98 1 3 C-0.98 4.32 -2.96 5.64 -5 7 C-5.66 6.67 -6.32 6.34 -7 6 C-4.69 4.02 -2.38 2.04 0 0 Z " fill="#5FBBE6" transform="translate(351,352)"/>
<path d="M0 0 C1.32 0.33 2.64 0.66 4 1 C4.12375 1.969375 4.2475 2.93875 4.375 3.9375 C4.58125 4.948125 4.7875 5.95875 5 7 C5.66 7.33 6.32 7.66 7 8 C6.01 8 5.02 8 4 8 C2.68 5.36 1.36 2.72 0 0 Z " fill="#62C3EF" transform="translate(193,266)"/>
<path d="M0 0 C0.99 0 1.98 0 3 0 C3 1.65 3 3.3 3 5 C3.66 5.33 4.32 5.66 5 6 C4.01 7.485 4.01 7.485 3 9 C0 3.375 0 3.375 0 0 Z " fill="#68C2E7" transform="translate(377,183)"/>
<path d="M0 0 C1.0625 1.8125 1.0625 1.8125 2 4 C1.67 4.99 1.34 5.98 1 7 C0.01 7 -0.98 7 -2 7 C-1.125 1.125 -1.125 1.125 0 0 Z " fill="#0AA2F2" transform="translate(421,114)"/>
<path d="M0 0 C-0.33 0.99 -0.66 1.98 -1 3 C-3.64 3 -6.28 3 -9 3 C-7.14340032 -0.71319936 -3.69365381 -0.09982848 0 0 Z " fill="#149DE7" transform="translate(200,81)"/>
<path d="M0 0 C1.32 0.66 2.64 1.32 4 2 C0.93882432 4.62386487 0.26826873 5 -4 5 C-4 4.34 -4 3.68 -4 3 C-3.01 2.67 -2.02 2.34 -1 2 C-0.67 1.34 -0.34 0.68 0 0 Z " fill="#59B7E5" transform="translate(348,397)"/>
<path d="M0 0 C1.65 0 3.3 0 5 0 C1.375 4.875 1.375 4.875 -2 6 C-2 5.34 -2 4.68 -2 4 C-1.34 4 -0.68 4 0 4 C0 2.68 0 1.36 0 0 Z " fill="#47B4E8" transform="translate(364,384)"/>
<path d="M0 0 C0.99 0.33 1.98 0.66 3 1 C3 1.66 3 2.32 3 3 C3.99 3.33 4.98 3.66 6 4 C6.33 5.65 6.66 7.3 7 9 C4.03595495 6.19195732 1.55500981 3.81684226 0 0 Z " fill="#7CC9EB" transform="translate(107,357)"/>
<path d="M0 0 C0.33 0.99 0.66 1.98 1 3 C-0.25 5.1875 -0.25 5.1875 -2 7 C-2.99 7 -3.98 7 -5 7 C-3.70700306 4.11562221 -2.34058637 2.12780579 0 0 Z " fill="#6BC0EB" transform="translate(357,345)"/>
<path d="M0 0 C0.33 0 0.66 0 1 0 C1.36923077 7.50769231 1.36923077 7.50769231 -0.5 10 C-0.995 10.33 -1.49 10.66 -2 11 C-1.125 3.375 -1.125 3.375 0 0 Z " fill="#169DE3" transform="translate(392,277)"/>
<path d="M0 0 C0.99 0.33 1.98 0.66 3 1 C1.02 3.31 -0.96 5.62 -3 8 C-3.33 7.34 -3.66 6.68 -4 6 C-3.67 5.01 -3.34 4.02 -3 3 C-2.01 3 -1.02 3 0 3 C0 2.01 0 1.02 0 0 Z " fill="#62BCE4" transform="translate(330,221)"/>
<path d="M0 0 C0.95465783 2.16967689 1.14401212 3.56328793 0.3984375 5.82421875 C-0.35870385 7.5684743 -1.17609198 9.28627131 -2 11 C-2.95465783 8.83032311 -3.14401212 7.43671207 -2.3984375 5.17578125 C-1.64129615 3.4315257 -0.82390802 1.71372869 0 0 Z " fill="#62B5E0" transform="translate(83,187)"/>
<path d="M0 0 C-1.25 1.5 -1.25 1.5 -3 3 C-4.32 3 -5.64 3 -7 3 C-6.67 2.01 -6.34 1.02 -6 0 C-3 -1 -3 -1 0 0 Z " fill="#10A1F3" transform="translate(199,115)"/>
<path d="M0 0 C3.65316671 1.24976756 4.78065836 1.67098753 7 5 C2.44615385 5.36923077 2.44615385 5.36923077 0.1875 3.5 C-0.204375 3.005 -0.59625 2.51 -1 2 C-0.67 1.34 -0.34 0.68 0 0 Z " fill="#51B5ED" transform="translate(329,90)"/>
<path d="M0 0 C0.33 0.99 0.66 1.98 1 3 C-0.40445835 5.2636564 -2.1967913 7.0208685 -4 9 C-4.33 8.34 -4.66 7.68 -5 7 C-3.35 4.69 -1.7 2.38 0 0 Z " fill="#079FF3" transform="translate(372,329)"/>
<path d="M0 0 C1.9375 0.6875 1.9375 0.6875 4 2 C4.75 4.625 4.75 4.625 5 7 C2.5 5.75 2.5 5.75 0 4 C0 2.68 0 1.36 0 0 Z " fill="#50B0EB" transform="translate(121,315)"/>
<path d="M0 0 C0 3.20395416 -0.74335022 5.09399739 -2 8 C-2.99 7.67 -3.98 7.34 -5 7 C-3.35 4.69 -1.7 2.38 0 0 Z " fill="#62C4EF" transform="translate(252,237)"/>
<path d="M0 0 C0 3.15081975 -0.27898465 4.41847698 -2 7 C-4.125 7.75 -4.125 7.75 -6 8 C-2.25 2.25 -2.25 2.25 0 0 Z " fill="#6EC6EB" transform="translate(270,215)"/>
<path d="M0 0 C0.66 0.33 1.32 0.66 2 1 C1.45276317 4.37462715 0.9451 6.08235 -1 9 C-1.09765625 2.84765625 -1.09765625 2.84765625 -1 1 C-0.67 0.67 -0.34 0.34 0 0 Z " fill="#5BB9E9" transform="translate(114,201)"/>
<path d="M0 0 C0.33 1.32 0.66 2.64 1 4 C-0.98 4 -2.96 4 -5 4 C-5.33 3.01 -5.66 2.02 -6 1 C-4.68 1 -3.36 1 -2 1 C-1.34 0.67 -0.68 0.34 0 0 Z " fill="#09A0F1" transform="translate(341,131)"/>
</svg>
